<?xml version="1.0" encoding="utf-8"?>
<!-- Generator: Adobe Illustrator 24.1.1, SVG Export Plug-In . SVG Version: 6.00 Build 0)  -->
<svg version="1.1" id="Layer_1" xmlns="http://www.w3.org/2000/svg" xmlns:xlink="http://www.w3.org/1999/xlink" x="0px" y="0px"
	 viewBox="0 0 1366 768" style="enable-background:new 0 0 1366 768;" xml:space="preserve">
<style type="text/css">
	.st0{fill:#0058D8;}
	.st1{fill:none;}
	.st2{fill:#FFFFFF;}
</style>
<path d="M-388.04,172.21h-17.16v11.62h20.13V191h-29.07v-43.37h29.01v7.24h-20.08v10.34h17.16V172.21z"/>
<path class="st0" d="M-274.04,363.21h-17.16v11.62h20.13V382h-29.07v-43.37h29.01v7.24h-20.08v10.34h17.16V363.21z"/>
<path d="M-66,514.59c0-3.2,0.62-6.05,1.85-8.55c1.23-2.5,3-4.44,5.32-5.81c2.31-1.37,5-2.06,8.06-2.06c4.35,0,7.9,1.33,10.65,3.99
	c2.75,2.66,4.28,6.27,4.6,10.84l0.06,2.2c0,4.94-1.38,8.91-4.14,11.9c-2.76,2.99-6.46,4.48-11.11,4.48s-8.35-1.49-11.12-4.47
	c-2.77-2.98-4.16-7.03-4.16-12.15V514.59z M-57.39,515.2c0,3.06,0.58,5.4,1.73,7.03c1.15,1.62,2.8,2.43,4.94,2.43
	c2.08,0,3.71-0.8,4.88-2.4c1.17-1.6,1.76-4.16,1.76-7.68c0-3-0.59-5.33-1.76-6.98c-1.17-1.65-2.82-2.48-4.94-2.48
	c-2.1,0-3.73,0.82-4.88,2.46C-56.82,509.22-57.39,511.76-57.39,515.2z"/>
<path d="M-362.4,167.39l5.42-9.62h9.2l-9.17,15.79l9.56,16.44h-9.23l-5.75-10.13l-5.72,10.13h-9.26l9.56-16.44l-9.14-15.79h9.23
	L-362.4,167.39z"/>
<path d="M-331.62,149.85v7.92h5.51v6.31h-5.51v16.08c0,1.19,0.23,2.05,0.69,2.56c0.46,0.52,1.33,0.77,2.62,0.77
	c0.95,0,1.8-0.07,2.53-0.21v6.52c-1.69,0.52-3.43,0.77-5.21,0.77c-6.04,0-9.11-3.05-9.23-9.14v-17.36h-4.71v-6.31h4.71v-7.92
	H-331.62z"/>
<path d="M-301.5,165.84c-1.17-0.16-2.2-0.24-3.1-0.24c-3.26,0-5.39,1.1-6.4,3.31V190h-8.61v-32.23h8.13l0.24,3.84
	c1.73-2.96,4.12-4.44,7.18-4.44c0.95,0,1.85,0.13,2.68,0.39L-301.5,165.84z"/>
<path d="M-261.87,173.65c0-5.02,1.13-9.02,3.38-12c2.25-2.98,5.34-4.47,9.25-4.47c3.14,0,5.73,1.17,7.77,3.51v-16.44h8.64V190h-7.77
	l-0.42-3.43c-2.14,2.68-4.9,4.02-8.28,4.02c-3.79,0-6.84-1.49-9.13-4.48C-260.72,183.12-261.87,178.97-261.87,173.65z
	 M-253.26,174.29c0,3.02,0.53,5.34,1.58,6.95c1.05,1.61,2.58,2.42,4.59,2.42c2.66,0,4.54-1.12,5.63-3.37v-12.74
	c-1.07-2.25-2.93-3.37-5.57-3.37C-251.18,164.18-253.26,167.55-253.26,174.29z"/>
<path d="M-82.87,625.65c0-5.02,1.13-9.02,3.38-12c2.25-2.98,5.34-4.47,9.25-4.47c3.14,0,5.73,1.17,7.77,3.51v-16.44l8.64-5V642
	h-7.77l-0.42-3.43c-2.14,2.68-4.9,4.02-8.28,4.02c-3.79,0-6.84-1.49-9.13-4.48C-81.72,635.12-82.87,630.97-82.87,625.65z
	 M-74.26,626.29c0,3.02,0.53,5.34,1.58,6.95c1.05,1.61,2.58,2.42,4.59,2.42c2.66,0,4.54-1.12,5.63-3.37v-12.74
	c-1.07-2.25-2.93-3.37-5.57-3.37C-72.18,616.18-74.26,619.55-74.26,626.29z"/>
<path d="M-205.77,190c-0.4-0.77-0.69-1.74-0.87-2.89c-2.08,2.32-4.79,3.48-8.13,3.48c-3.16,0-5.77-0.91-7.85-2.74
	c-2.07-1.83-3.11-4.13-3.11-6.91c0-3.42,1.27-6.04,3.8-7.86c2.53-1.83,6.19-2.75,10.98-2.77h3.96v-1.85c0-1.49-0.38-2.68-1.15-3.57
	c-0.76-0.89-1.97-1.34-3.62-1.34c-1.45,0-2.59,0.35-3.41,1.04c-0.82,0.7-1.24,1.65-1.24,2.86h-8.61c0-1.87,0.58-3.59,1.73-5.18
	c1.15-1.59,2.78-2.83,4.88-3.74c2.1-0.9,4.47-1.36,7.09-1.36c3.97,0,7.12,1,9.46,2.99c2.33,2,3.5,4.8,3.5,8.41v13.97
	c0.02,3.06,0.45,5.37,1.28,6.94V190H-205.77z M-212.89,184.01c1.27,0,2.44-0.28,3.51-0.85c1.07-0.57,1.87-1.33,2.38-2.28v-5.54
	h-3.22c-4.31,0-6.6,1.49-6.88,4.47l-0.03,0.51c0,1.07,0.38,1.96,1.13,2.65C-215.23,183.67-214.2,184.01-212.89,184.01z"/>
<path d="M-179.73,149.85v7.92h5.51v6.31h-5.51v16.08c0,1.19,0.23,2.05,0.69,2.56c0.46,0.52,1.33,0.77,2.62,0.77
	c0.95,0,1.8-0.07,2.53-0.21v6.52c-1.69,0.52-3.42,0.77-5.21,0.77c-6.04,0-9.11-3.05-9.23-9.14v-17.36h-4.71v-6.31h4.71v-7.92
	H-179.73z"/>
<path d="M-149.04,190c-0.4-0.77-0.68-1.74-0.86-2.89c-2.08,2.32-4.79,3.48-8.13,3.48c-3.16,0-5.77-0.91-7.85-2.74
	c-2.08-1.83-3.11-4.13-3.11-6.91c0-3.42,1.27-6.04,3.8-7.86c2.53-1.83,6.19-2.75,10.98-2.77h3.96v-1.85c0-1.49-0.38-2.68-1.15-3.57
	s-1.97-1.34-3.62-1.34c-1.45,0-2.59,0.35-3.41,1.04c-0.82,0.7-1.24,1.65-1.24,2.86h-8.61c0-1.87,0.58-3.59,1.73-5.18
	c1.15-1.59,2.78-2.83,4.88-3.74c2.1-0.9,4.47-1.36,7.09-1.36c3.97,0,7.12,1,9.46,2.99c2.33,2,3.5,4.8,3.5,8.41v13.97
	c0.02,3.06,0.45,5.37,1.28,6.94V190H-149.04z M-156.16,184.01c1.27,0,2.44-0.28,3.51-0.85c1.07-0.57,1.87-1.33,2.38-2.28v-5.54
	h-3.22c-4.31,0-6.6,1.49-6.88,4.47l-0.03,0.51c0,1.07,0.38,1.96,1.13,2.65C-158.5,183.67-157.47,184.01-156.16,184.01z"/>
<rect x="-123" y="496" class="st0" width="31" height="7"/>
<rect x="-123" y="530" class="st0" width="31" height="7"/>
<rect x="-123" y="513" class="st0" width="27" height="7"/>
<path class="st1" d="M-282,180c2.47,0,4.67,1.12,6.14,2.88c2.34-1.83,3.86-4.68,3.86-7.88c0-5.51-4.49-10-10-10s-10,4.49-10,10
	c0,3.2,1.52,6.04,3.86,7.88C-286.67,181.12-284.47,180-282,180z"/>
<path d="M-265,175c0-9.39-7.61-17-17-17s-17,7.61-17,17c0,6.61,3.78,12.33,9.3,15.14c-0.19-0.68-0.3-1.4-0.3-2.14
	c0-1.95,0.7-3.74,1.86-5.12c-2.34-1.83-3.86-4.68-3.86-7.88c0-5.51,4.49-10,10-10s10,4.49,10,10c0,3.2-1.52,6.04-3.86,7.88
	c1.16,1.39,1.86,3.17,1.86,5.12c0,0.74-0.11,1.46-0.3,2.14C-268.78,187.33-265,181.61-265,175z"/>
<circle class="st0" cx="-282" cy="175" r="5"/>
<path d="M-144.16,657.08h-6.31v4.28h7.41V664h-10.7v-15.96h10.68v2.66h-7.39v3.8h6.31V657.08z"/>
<path d="M-134.73,655.31l2-3.54h3.39l-3.38,5.81l3.52,6.05h-3.4l-2.12-3.73l-2.1,3.73h-3.41l3.52-6.05l-3.37-5.81h3.4
	L-134.73,655.31z"/>
<path d="M-123.4,648.86v2.92h2.03v2.32h-2.03v5.92c0,0.44,0.08,0.75,0.25,0.94c0.17,0.19,0.49,0.28,0.96,0.28
	c0.35,0,0.66-0.03,0.93-0.08v2.4c-0.62,0.19-1.26,0.28-1.92,0.28c-2.22,0-3.35-1.12-3.4-3.37v-6.39h-1.73v-2.32h1.73v-2.92H-123.4z"
	/>
<path d="M-112.31,654.74c-0.43-0.06-0.81-0.09-1.14-0.09c-1.2,0-1.98,0.41-2.36,1.22v7.76h-3.17v-11.86h2.99l0.09,1.41
	c0.64-1.09,1.52-1.63,2.64-1.63c0.35,0,0.68,0.05,0.99,0.14L-112.31,654.74z"/>
<path d="M-97.72,657.61c0-1.85,0.41-3.32,1.24-4.42c0.83-1.1,1.96-1.64,3.4-1.64c1.15,0,2.11,0.43,2.86,1.29v-6.05h3.18v16.84h-2.86
	l-0.15-1.26c-0.79,0.99-1.81,1.48-3.05,1.48c-1.4,0-2.52-0.55-3.36-1.65C-97.3,661.1-97.72,659.57-97.72,657.61z M-94.56,657.85
	c0,1.11,0.19,1.97,0.58,2.56c0.39,0.59,0.95,0.89,1.69,0.89c0.98,0,1.67-0.41,2.07-1.24v-4.69c-0.39-0.83-1.08-1.24-2.05-1.24
	C-93.79,654.13-94.56,655.37-94.56,657.85z"/>
<path d="M-77.08,663.63c-0.15-0.28-0.25-0.64-0.32-1.06c-0.77,0.86-1.76,1.28-2.99,1.28c-1.16,0-2.12-0.34-2.89-1.01
	c-0.76-0.67-1.15-1.52-1.15-2.54c0-1.26,0.47-2.22,1.4-2.89c0.93-0.67,2.28-1.01,4.04-1.02h1.46v-0.68c0-0.55-0.14-0.99-0.42-1.32
	c-0.28-0.33-0.73-0.49-1.33-0.49c-0.53,0-0.95,0.13-1.26,0.38c-0.3,0.26-0.46,0.61-0.46,1.05h-3.17c0-0.69,0.21-1.32,0.64-1.91
	c0.42-0.58,1.02-1.04,1.8-1.38c0.77-0.33,1.64-0.5,2.61-0.5c1.46,0,2.62,0.37,3.48,1.1c0.86,0.73,1.29,1.77,1.29,3.1v5.14
	c0.01,1.13,0.16,1.98,0.47,2.55v0.19H-77.08z M-79.7,661.43c0.47,0,0.9-0.1,1.29-0.31c0.39-0.21,0.69-0.49,0.88-0.84v-2.04h-1.18
	c-1.59,0-2.43,0.55-2.53,1.64l-0.01,0.19c0,0.39,0.14,0.72,0.42,0.98C-80.56,661.3-80.18,661.43-79.7,661.43z"/>
<path d="M-67.5,648.86v2.92h2.03v2.32h-2.03v5.92c0,0.44,0.08,0.75,0.25,0.94c0.17,0.19,0.49,0.28,0.96,0.28
	c0.35,0,0.66-0.03,0.93-0.08v2.4c-0.62,0.19-1.26,0.28-1.92,0.28c-2.22,0-3.35-1.12-3.4-3.37v-6.39h-1.73v-2.32h1.73v-2.92H-67.5z"
	/>
<path d="M-56.2,663.63c-0.15-0.28-0.25-0.64-0.32-1.06c-0.77,0.86-1.76,1.28-2.99,1.28c-1.16,0-2.12-0.34-2.89-1.01
	c-0.76-0.67-1.15-1.52-1.15-2.54c0-1.26,0.47-2.22,1.4-2.89c0.93-0.67,2.28-1.01,4.04-1.02h1.46v-0.68c0-0.55-0.14-0.99-0.42-1.32
	c-0.28-0.33-0.73-0.49-1.33-0.49c-0.53,0-0.95,0.13-1.26,0.38c-0.3,0.26-0.46,0.61-0.46,1.05h-3.17c0-0.69,0.21-1.32,0.64-1.91
	c0.42-0.58,1.02-1.04,1.8-1.38c0.77-0.33,1.64-0.5,2.61-0.5c1.46,0,2.62,0.37,3.48,1.1c0.86,0.73,1.29,1.77,1.29,3.1v5.14
	c0.01,1.13,0.16,1.98,0.47,2.55v0.19H-56.2z M-58.82,661.43c0.47,0,0.9-0.1,1.29-0.31c0.39-0.21,0.69-0.49,0.88-0.84v-2.04h-1.18
	c-1.59,0-2.43,0.55-2.53,1.64l-0.01,0.19c0,0.39,0.14,0.72,0.42,0.98C-59.68,661.3-59.3,661.43-58.82,661.43z"/>
<path class="st1" d="M-105.13,659.95c0.91,0,1.72,0.41,2.26,1.06c0.86-0.67,1.42-1.72,1.42-2.9c0-2.03-1.65-3.68-3.68-3.68
	s-3.68,1.65-3.68,3.68c0,1.18,0.56,2.22,1.42,2.9C-106.85,660.36-106.04,659.95-105.13,659.95z"/>
<path d="M-98.88,658.11c0-3.46-2.8-6.26-6.26-6.26c-3.46,0-6.26,2.8-6.26,6.26c0,2.43,1.39,4.54,3.42,5.57
	c-0.07-0.25-0.11-0.51-0.11-0.79c0-0.72,0.26-1.38,0.68-1.89c-0.86-0.67-1.42-1.72-1.42-2.9c0-2.03,1.65-3.68,3.68-3.68
	s3.68,1.65,3.68,3.68c0,1.18-0.56,2.22-1.42,2.9c0.43,0.51,0.68,1.17,0.68,1.89c0,0.27-0.04,0.54-0.11,0.79
	C-100.27,662.65-98.88,660.55-98.88,658.11z"/>
<circle class="st0" cx="-105.13" cy="658.11" r="1.84"/>
<polyline class="st0" points="-123,513 -123,513.79 -123,526 -111.74,513.28 "/>
<rect x="-154" y="601" class="st0" width="31" height="7"/>
<rect x="-154" y="635" class="st0" width="31" height="7"/>
<rect x="-154" y="618" class="st0" width="27" height="7"/>
<polyline class="st0" points="-154,618 -154,618.79 -154,631 -142.74,618.28 "/>
<g>
	<path d="M-407.55,207.97h-5.37v4.39h6.23v1.33h-7.87v-12.38h7.78v1.34h-6.15v3.99h5.37V207.97z"/>
	<path d="M-399.04,207.85l2.04-3.36h1.84l-3.01,4.55l3.1,4.65h-1.82l-2.13-3.44l-2.13,3.44h-1.83l3.1-4.65l-3.01-4.55h1.82
		L-399.04,207.85z"/>
	<path d="M-388.59,202.27v2.23h1.72v1.22h-1.72v5.71c0,0.37,0.08,0.65,0.23,0.83c0.15,0.18,0.41,0.28,0.78,0.28
		c0.18,0,0.43-0.03,0.75-0.1v1.27c-0.41,0.11-0.82,0.17-1.21,0.17c-0.7,0-1.23-0.21-1.59-0.64c-0.36-0.43-0.54-1.03-0.54-1.81v-5.71
		h-1.68v-1.22h1.68v-2.23H-388.59z"/>
	<path d="M-377.82,205.91c-0.24-0.04-0.5-0.06-0.77-0.06c-1.03,0-1.73,0.44-2.1,1.32v6.53h-1.57v-9.2h1.53l0.03,1.06
		c0.52-0.82,1.25-1.23,2.19-1.23c0.31,0,0.54,0.04,0.7,0.12V205.91z"/>
	<path d="M-368.26,213.7c-0.09-0.18-0.16-0.5-0.22-0.97c-0.73,0.76-1.6,1.14-2.62,1.14c-0.91,0-1.65-0.26-2.23-0.77
		c-0.58-0.51-0.87-1.16-0.87-1.95c0-0.96,0.36-1.7,1.09-2.23c0.73-0.53,1.75-0.79,3.07-0.79h1.53v-0.72c0-0.55-0.16-0.99-0.49-1.31
		c-0.33-0.33-0.81-0.49-1.45-0.49c-0.56,0-1.03,0.14-1.41,0.43c-0.38,0.28-0.57,0.63-0.57,1.03h-1.58c0-0.46,0.16-0.9,0.49-1.33
		c0.33-0.43,0.77-0.77,1.33-1.02s1.17-0.37,1.84-0.37c1.06,0,1.89,0.27,2.49,0.79c0.6,0.53,0.91,1.26,0.94,2.19v4.24
		c0,0.84,0.11,1.52,0.32,2.02v0.14H-368.26z M-370.87,212.5c0.49,0,0.96-0.13,1.4-0.38c0.44-0.25,0.76-0.59,0.96-0.99v-1.89h-1.23
		c-1.93,0-2.89,0.56-2.89,1.69c0,0.49,0.16,0.88,0.49,1.16C-371.81,212.36-371.39,212.5-370.87,212.5z"/>
	<path d="M-362.12,209.01c0-0.9,0.18-1.71,0.53-2.43c0.35-0.72,0.85-1.28,1.48-1.67c0.63-0.39,1.35-0.59,2.16-0.59
		c1.25,0,2.27,0.43,3.04,1.3c0.77,0.87,1.16,2.02,1.16,3.46v0.11c0,0.9-0.17,1.7-0.51,2.41c-0.34,0.71-0.83,1.27-1.47,1.66
		c-0.64,0.4-1.37,0.6-2.2,0.6c-1.25,0-2.26-0.43-3.03-1.3c-0.77-0.87-1.16-2.02-1.16-3.44V209.01z M-360.53,209.2
		c0,1.02,0.24,1.84,0.71,2.46c0.47,0.62,1.11,0.93,1.9,0.93c0.8,0,1.43-0.31,1.91-0.94c0.47-0.63,0.71-1.5,0.71-2.63
		c0-1.01-0.24-1.83-0.72-2.45c-0.48-0.63-1.12-0.94-1.91-0.94c-0.78,0-1.4,0.31-1.88,0.93C-360.3,207.16-360.53,208.05-360.53,209.2
		z"/>
	<path d="M-344.55,205.91c-0.24-0.04-0.5-0.06-0.77-0.06c-1.03,0-1.73,0.44-2.1,1.32v6.53H-349v-9.2h1.53l0.03,1.06
		c0.52-0.82,1.25-1.23,2.19-1.23c0.31,0,0.54,0.04,0.7,0.12V205.91z"/>
	<path d="M-340.88,209.02c0-1.41,0.33-2.55,1-3.41s1.54-1.29,2.63-1.29c1.08,0,1.93,0.37,2.56,1.11v-4.8h1.57v13.06h-1.45
		l-0.08-0.99c-0.63,0.77-1.5,1.16-2.63,1.16c-1.07,0-1.94-0.44-2.61-1.31c-0.67-0.87-1.01-2.01-1.01-3.42V209.02z M-339.3,209.2
		c0,1.04,0.22,1.86,0.65,2.45c0.43,0.59,1.03,0.88,1.79,0.88c1,0,1.73-0.45,2.19-1.34v-4.23c-0.47-0.87-1.19-1.3-2.17-1.3
		c-0.77,0-1.37,0.3-1.8,0.89C-339.09,207.15-339.3,208.03-339.3,209.2z"/>
	<path d="M-327.9,202.05c0-0.25,0.08-0.47,0.23-0.65c0.16-0.18,0.39-0.26,0.69-0.26s0.54,0.09,0.7,0.26s0.24,0.39,0.24,0.65
		c0,0.26-0.08,0.47-0.24,0.64c-0.16,0.17-0.39,0.25-0.7,0.25s-0.54-0.08-0.69-0.25C-327.82,202.52-327.9,202.31-327.9,202.05z
		 M-326.19,213.7h-1.57v-9.2h1.57V213.7z"/>
	<path d="M-319.42,204.49l0.05,1.16c0.7-0.88,1.62-1.33,2.76-1.33c1.94,0,2.93,1.1,2.94,3.29v6.08h-1.57v-6.09
		c-0.01-0.66-0.16-1.15-0.46-1.47c-0.3-0.32-0.76-0.48-1.39-0.48c-0.51,0-0.96,0.14-1.34,0.41c-0.39,0.27-0.69,0.63-0.9,1.07v6.56
		h-1.57v-9.2H-319.42z"/>
	<path d="M-302.85,213.7c-0.09-0.18-0.16-0.5-0.22-0.97c-0.73,0.76-1.6,1.14-2.62,1.14c-0.91,0-1.65-0.26-2.23-0.77
		c-0.58-0.51-0.87-1.16-0.87-1.95c0-0.96,0.36-1.7,1.09-2.23c0.73-0.53,1.75-0.79,3.07-0.79h1.53v-0.72c0-0.55-0.16-0.99-0.49-1.31
		c-0.33-0.33-0.81-0.49-1.45-0.49c-0.56,0-1.03,0.14-1.41,0.43c-0.38,0.28-0.57,0.63-0.57,1.03h-1.58c0-0.46,0.16-0.9,0.49-1.33
		c0.33-0.43,0.77-0.77,1.33-1.02s1.17-0.37,1.84-0.37c1.06,0,1.89,0.27,2.49,0.79c0.6,0.53,0.91,1.26,0.94,2.19v4.24
		c0,0.84,0.11,1.52,0.32,2.02v0.14H-302.85z M-305.46,212.5c0.49,0,0.96-0.13,1.4-0.38c0.44-0.25,0.76-0.59,0.96-0.99v-1.89h-1.23
		c-1.93,0-2.89,0.56-2.89,1.69c0,0.49,0.16,0.88,0.49,1.16C-306.4,212.36-305.97,212.5-305.46,212.5z"/>
	<path d="M-291.84,205.91c-0.24-0.04-0.5-0.06-0.77-0.06c-1.03,0-1.73,0.44-2.1,1.32v6.53h-1.57v-9.2h1.53l0.03,1.06
		c0.52-0.82,1.25-1.23,2.19-1.23c0.31,0,0.54,0.04,0.7,0.12V205.91z"/>
	<path d="M-285.06,202.27v2.23h1.72v1.22h-1.72v5.71c0,0.37,0.08,0.65,0.23,0.83c0.15,0.18,0.41,0.28,0.78,0.28
		c0.18,0,0.43-0.03,0.75-0.1v1.27c-0.41,0.11-0.82,0.17-1.21,0.17c-0.7,0-1.23-0.21-1.59-0.64c-0.36-0.43-0.54-1.03-0.54-1.81v-5.71
		h-1.68v-1.22h1.68v-2.23H-285.06z"/>
	<path d="M-272.04,209.02c0-1.41,0.33-2.55,1-3.41s1.54-1.29,2.63-1.29c1.08,0,1.93,0.37,2.56,1.11v-4.8h1.57v13.06h-1.45
		l-0.08-0.99c-0.63,0.77-1.5,1.16-2.63,1.16c-1.07,0-1.94-0.44-2.61-1.31c-0.67-0.87-1.01-2.01-1.01-3.42V209.02z M-270.47,209.2
		c0,1.04,0.22,1.86,0.65,2.45c0.43,0.59,1.03,0.88,1.79,0.88c1,0,1.73-0.45,2.19-1.34v-4.23c-0.47-0.87-1.19-1.3-2.17-1.3
		c-0.77,0-1.37,0.3-1.8,0.89C-270.25,207.15-270.47,208.03-270.47,209.2z"/>
	<path d="M-253.39,213.7c-0.09-0.18-0.16-0.5-0.22-0.97c-0.73,0.76-1.6,1.14-2.62,1.14c-0.91,0-1.65-0.26-2.23-0.77
		c-0.58-0.51-0.87-1.16-0.87-1.95c0-0.96,0.36-1.7,1.09-2.23c0.73-0.53,1.75-0.79,3.07-0.79h1.53v-0.72c0-0.55-0.16-0.99-0.49-1.31
		c-0.33-0.33-0.81-0.49-1.45-0.49c-0.56,0-1.03,0.14-1.41,0.43c-0.38,0.28-0.57,0.63-0.57,1.03h-1.58c0-0.46,0.16-0.9,0.49-1.33
		c0.33-0.43,0.77-0.77,1.33-1.02s1.17-0.37,1.84-0.37c1.06,0,1.89,0.27,2.49,0.79c0.6,0.53,0.91,1.26,0.94,2.19v4.24
		c0,0.84,0.11,1.52,0.32,2.02v0.14H-253.39z M-256,212.5c0.49,0,0.96-0.13,1.4-0.38c0.44-0.25,0.76-0.59,0.96-0.99v-1.89h-1.23
		c-1.93,0-2.89,0.56-2.89,1.69c0,0.49,0.16,0.88,0.49,1.16C-256.93,212.36-256.51,212.5-256,212.5z"/>
	<path d="M-244.69,202.27v2.23h1.72v1.22h-1.72v5.71c0,0.37,0.08,0.65,0.23,0.83c0.15,0.18,0.41,0.28,0.78,0.28
		c0.18,0,0.43-0.03,0.75-0.1v1.27c-0.41,0.11-0.82,0.17-1.21,0.17c-0.7,0-1.23-0.21-1.59-0.64c-0.36-0.43-0.54-1.03-0.54-1.81v-5.71
		h-1.68v-1.22h1.68v-2.23H-244.69z"/>
	<path d="M-232.68,213.7c-0.09-0.18-0.16-0.5-0.22-0.97c-0.73,0.76-1.6,1.14-2.62,1.14c-0.91,0-1.65-0.26-2.23-0.77
		c-0.58-0.51-0.87-1.16-0.87-1.95c0-0.96,0.36-1.7,1.09-2.23c0.73-0.53,1.75-0.79,3.07-0.79h1.53v-0.72c0-0.55-0.16-0.99-0.49-1.31
		c-0.33-0.33-0.81-0.49-1.45-0.49c-0.56,0-1.03,0.14-1.41,0.43c-0.38,0.28-0.57,0.63-0.57,1.03h-1.58c0-0.46,0.16-0.9,0.49-1.33
		c0.33-0.43,0.77-0.77,1.33-1.02s1.17-0.37,1.84-0.37c1.06,0,1.89,0.27,2.49,0.79c0.6,0.53,0.91,1.26,0.94,2.19v4.24
		c0,0.84,0.11,1.52,0.32,2.02v0.14H-232.68z M-235.29,212.5c0.49,0,0.96-0.13,1.4-0.38c0.44-0.25,0.76-0.59,0.96-0.99v-1.89h-1.23
		c-1.93,0-2.89,0.56-2.89,1.69c0,0.49,0.16,0.88,0.49,1.16C-236.23,212.36-235.81,212.5-235.29,212.5z"/>
	<path d="M-219.03,202.05c0-0.25,0.08-0.47,0.23-0.65c0.16-0.18,0.39-0.26,0.69-0.26c0.31,0,0.54,0.09,0.7,0.26s0.24,0.39,0.24,0.65
		c0,0.26-0.08,0.47-0.24,0.64c-0.16,0.17-0.39,0.25-0.7,0.25c-0.31,0-0.54-0.08-0.69-0.25
		C-218.95,202.52-219.03,202.31-219.03,202.05z M-217.33,213.7h-1.57v-9.2h1.57V213.7z"/>
	<path d="M-210.56,204.49l0.05,1.16c0.7-0.88,1.62-1.33,2.76-1.33c1.94,0,2.93,1.1,2.94,3.29v6.08h-1.57v-6.09
		c-0.01-0.66-0.16-1.15-0.46-1.47c-0.3-0.32-0.76-0.48-1.39-0.48c-0.51,0-0.96,0.14-1.34,0.41c-0.39,0.27-0.69,0.63-0.9,1.07v6.56
		h-1.57v-9.2H-210.56z"/>
	<path d="M-194.31,211.25c0-0.42-0.16-0.76-0.48-0.99c-0.32-0.23-0.88-0.44-1.67-0.61c-0.8-0.17-1.43-0.37-1.9-0.61
		s-0.81-0.52-1.04-0.85c-0.22-0.33-0.33-0.72-0.33-1.17c0-0.75,0.32-1.39,0.96-1.91c0.64-0.52,1.45-0.78,2.45-0.78
		c1.04,0,1.89,0.27,2.54,0.81c0.65,0.54,0.97,1.23,0.97,2.07h-1.58c0-0.43-0.18-0.8-0.55-1.11c-0.37-0.31-0.83-0.47-1.38-0.47
		c-0.57,0-1.02,0.13-1.34,0.37c-0.32,0.25-0.48,0.58-0.48,0.98c0,0.38,0.15,0.67,0.45,0.86c0.3,0.19,0.84,0.38,1.63,0.55
		s1.42,0.39,1.91,0.63c0.49,0.24,0.85,0.54,1.08,0.88c0.24,0.34,0.35,0.76,0.35,1.25c0,0.82-0.33,1.48-0.99,1.98
		c-0.66,0.5-1.51,0.74-2.56,0.74c-0.74,0-1.39-0.13-1.96-0.39c-0.57-0.26-1.01-0.63-1.33-1.09s-0.48-0.97-0.48-1.52h1.57
		c0.03,0.53,0.24,0.95,0.63,1.25c0.39,0.31,0.91,0.46,1.56,0.46c0.6,0,1.07-0.12,1.43-0.36
		C-194.49,211.98-194.31,211.66-194.31,211.25z"/>
	<path d="M-187.91,202.05c0-0.25,0.08-0.47,0.23-0.65c0.16-0.18,0.39-0.26,0.69-0.26c0.31,0,0.54,0.09,0.7,0.26
		c0.16,0.18,0.24,0.39,0.24,0.65c0,0.26-0.08,0.47-0.24,0.64c-0.16,0.17-0.39,0.25-0.7,0.25c-0.31,0-0.54-0.08-0.69-0.25
		C-187.83,202.52-187.91,202.31-187.91,202.05z M-186.21,213.7h-1.57v-9.2h1.57V213.7z"/>
	<path d="M-181.29,209.02c0-1.43,0.33-2.58,1-3.42s1.54-1.27,2.64-1.27c1.12,0,2,0.4,2.63,1.19l0.08-1.02h1.44v8.98
		c0,1.19-0.35,2.13-1.06,2.81s-1.65,1.03-2.84,1.03c-0.66,0-1.31-0.14-1.95-0.43c-0.63-0.28-1.12-0.67-1.45-1.17l0.82-0.94
		c0.67,0.83,1.5,1.25,2.47,1.25c0.77,0,1.36-0.22,1.79-0.65c0.43-0.43,0.64-1.04,0.64-1.82v-0.79c-0.63,0.73-1.49,1.09-2.58,1.09
		c-1.08,0-1.95-0.43-2.62-1.3C-180.96,211.7-181.29,210.52-181.29,209.02z M-179.71,209.2c0,1.04,0.21,1.85,0.64,2.44
		c0.42,0.59,1.02,0.89,1.79,0.89c0.99,0,1.72-0.45,2.19-1.35v-4.2c-0.48-0.88-1.21-1.32-2.17-1.32c-0.77,0-1.36,0.3-1.79,0.89
		C-179.5,207.15-179.71,208.03-179.71,209.2z"/>
	<path d="M-166.81,205.61c0.7-0.86,1.6-1.28,2.72-1.28c1.94,0,2.93,1.1,2.94,3.29v6.08h-1.57v-6.09c-0.01-0.66-0.16-1.15-0.46-1.47
		c-0.3-0.32-0.76-0.48-1.39-0.48c-0.51,0-0.96,0.14-1.34,0.41c-0.39,0.27-0.69,0.63-0.9,1.07v6.56h-1.57v-13.06h1.57V205.61z"/>
	<path d="M-153.88,202.27v2.23h1.72v1.22h-1.72v5.71c0,0.37,0.08,0.65,0.23,0.83c0.15,0.18,0.41,0.28,0.78,0.28
		c0.18,0,0.43-0.03,0.75-0.1v1.27c-0.41,0.11-0.82,0.17-1.21,0.17c-0.7,0-1.23-0.21-1.59-0.64c-0.36-0.43-0.54-1.03-0.54-1.81v-5.71
		h-1.68v-1.22h1.68v-2.23H-153.88z"/>
	<path d="M-142.2,211.25c0-0.42-0.16-0.76-0.48-0.99c-0.32-0.23-0.88-0.44-1.67-0.61c-0.8-0.17-1.43-0.37-1.9-0.61
		s-0.81-0.52-1.04-0.85c-0.22-0.33-0.33-0.72-0.33-1.17c0-0.75,0.32-1.39,0.96-1.91c0.64-0.52,1.45-0.78,2.45-0.78
		c1.04,0,1.89,0.27,2.54,0.81c0.65,0.54,0.97,1.23,0.97,2.07h-1.58c0-0.43-0.18-0.8-0.55-1.11c-0.37-0.31-0.83-0.47-1.38-0.47
		c-0.57,0-1.02,0.13-1.34,0.37c-0.32,0.25-0.48,0.58-0.48,0.98c0,0.38,0.15,0.67,0.45,0.86c0.3,0.19,0.84,0.38,1.63,0.55
		s1.42,0.39,1.91,0.63c0.49,0.24,0.85,0.54,1.08,0.88c0.24,0.34,0.35,0.76,0.35,1.25c0,0.82-0.33,1.48-0.99,1.98
		c-0.66,0.5-1.51,0.74-2.56,0.74c-0.74,0-1.39-0.13-1.96-0.39c-0.57-0.26-1.01-0.63-1.33-1.09s-0.48-0.97-0.48-1.52h1.57
		c0.03,0.53,0.24,0.95,0.63,1.25c0.39,0.31,0.91,0.46,1.56,0.46c0.6,0,1.07-0.12,1.43-0.36
		C-142.38,211.98-142.2,211.66-142.2,211.25z"/>
</g>
<path d="M-96.62,641h9.23l-8.44-14.51c-1.87,2.89-3.39,5.55-4.59,7.83L-96.62,641z"/>
<path class="st0" d="M-96.98,608.77l-5.42,9.62l-5.3-9.62h-9.23l9.14,15.79l-9.56,16.44h4.72c5.16-14.08,12.1-24.51,19.65-32.23
	H-96.98z"/>
<path class="st2" d="M-108.09,641h-4.54c-0.12,0.33-0.25,0.66-0.37,1h9c0,0,1.12-3.03,3.58-7.69l-1.95-3.44L-108.09,641z"/>
<path class="st2" d="M-40,587c0,0-29.46-2.26-52.98,21.77h5.2l-9.17,15.79l1.12,1.93C-86.63,612.25-69.05,592.56-40,587z"/>
<path class="st0" d="M-117,641h9c0,0,17-46,64-55C-44,586-96,582-117,641z"/>
<path class="st0" d="M-228.87,365.65c0-5.02,1.13-9.02,3.38-12c2.25-2.98,5.34-4.47,9.25-4.47c3.14,0,5.73,1.17,7.77,3.51v-16.44
	l8.64-5V382h-7.77l-0.42-3.43c-2.14,2.68-4.9,4.02-8.28,4.02c-3.79,0-6.84-1.49-9.13-4.48
	C-227.72,375.12-228.87,370.97-228.87,365.65z M-220.26,366.29c0,3.02,0.53,5.34,1.58,6.95c1.05,1.61,2.58,2.42,4.59,2.42
	c2.66,0,4.54-1.12,5.63-3.37v-12.74c-1.07-2.25-2.93-3.37-5.57-3.37C-218.18,356.18-220.26,359.55-220.26,366.29z"/>
<path d="M-297.16,275.08h-6.31v4.28h7.41V282h-10.7v-15.96h10.68v2.66h-7.39v3.8h6.31V275.08z"/>
<path d="M-287.73,273.31l2-3.54h3.39l-3.38,5.81l3.52,6.05h-3.4l-2.12-3.73l-2.1,3.73h-3.41l3.52-6.05l-3.37-5.81h3.4
	L-287.73,273.31z"/>
<path d="M-276.4,266.86v2.92h2.03v2.32h-2.03v5.92c0,0.44,0.08,0.75,0.25,0.94c0.17,0.19,0.49,0.29,0.96,0.29
	c0.35,0,0.66-0.03,0.93-0.08v2.4c-0.62,0.19-1.26,0.29-1.92,0.29c-2.22,0-3.35-1.12-3.4-3.37v-6.39h-1.73v-2.32h1.73v-2.92H-276.4z"
	/>
<path d="M-265.31,272.74c-0.43-0.06-0.81-0.09-1.14-0.09c-1.2,0-1.98,0.41-2.36,1.22v7.76h-3.17v-11.86h2.99l0.09,1.41
	c0.64-1.09,1.52-1.63,2.64-1.63c0.35,0,0.68,0.05,0.99,0.14L-265.31,272.74z"/>
<path d="M-250.72,275.61c0-1.85,0.41-3.32,1.24-4.42c0.83-1.1,1.96-1.64,3.4-1.64c1.15,0,2.11,0.43,2.86,1.29v-6.05h3.18v16.84
	h-2.86l-0.15-1.26c-0.79,0.99-1.81,1.48-3.05,1.48c-1.4,0-2.52-0.55-3.36-1.65C-250.3,279.1-250.72,277.57-250.72,275.61z
	 M-247.56,275.85c0,1.11,0.19,1.97,0.58,2.56c0.39,0.59,0.95,0.89,1.69,0.89c0.98,0,1.67-0.41,2.07-1.24v-4.69
	c-0.39-0.83-1.08-1.24-2.05-1.24C-246.79,272.13-247.56,273.37-247.56,275.85z"/>
<path d="M-230.08,281.63c-0.15-0.29-0.25-0.64-0.32-1.06c-0.77,0.86-1.76,1.28-2.99,1.28c-1.16,0-2.12-0.34-2.89-1.01
	c-0.76-0.67-1.15-1.52-1.15-2.54c0-1.26,0.47-2.22,1.4-2.89c0.93-0.67,2.28-1.01,4.04-1.02h1.46v-0.68c0-0.55-0.14-0.99-0.42-1.32
	c-0.28-0.33-0.73-0.49-1.33-0.49c-0.53,0-0.95,0.13-1.26,0.38c-0.3,0.26-0.46,0.61-0.46,1.05h-3.17c0-0.69,0.21-1.32,0.64-1.91
	c0.42-0.58,1.02-1.04,1.8-1.38c0.77-0.33,1.64-0.5,2.61-0.5c1.46,0,2.62,0.37,3.48,1.1c0.86,0.73,1.29,1.77,1.29,3.1v5.14
	c0.01,1.13,0.16,1.98,0.47,2.55v0.19H-230.08z M-232.7,279.43c0.47,0,0.9-0.1,1.29-0.31c0.39-0.21,0.69-0.49,0.88-0.84v-2.04h-1.18
	c-1.59,0-2.43,0.55-2.53,1.64l-0.01,0.19c0,0.39,0.14,0.72,0.42,0.98C-233.56,279.3-233.18,279.43-232.7,279.43z"/>
<path d="M-220.5,266.86v2.92h2.03v2.32h-2.03v5.92c0,0.44,0.08,0.75,0.25,0.94c0.17,0.19,0.49,0.29,0.96,0.29
	c0.35,0,0.66-0.03,0.93-0.08v2.4c-0.62,0.19-1.26,0.29-1.92,0.29c-2.22,0-3.35-1.12-3.4-3.37v-6.39h-1.73v-2.32h1.73v-2.92H-220.5z"
	/>
<path d="M-209.2,281.63c-0.15-0.29-0.25-0.64-0.32-1.06c-0.77,0.86-1.76,1.28-2.99,1.28c-1.16,0-2.12-0.34-2.89-1.01
	c-0.76-0.67-1.15-1.52-1.15-2.54c0-1.26,0.47-2.22,1.4-2.89c0.93-0.67,2.28-1.01,4.04-1.02h1.46v-0.68c0-0.55-0.14-0.99-0.42-1.32
	s-0.73-0.49-1.33-0.49c-0.53,0-0.95,0.13-1.26,0.38c-0.3,0.26-0.46,0.61-0.46,1.05h-3.17c0-0.69,0.21-1.32,0.64-1.91
	c0.42-0.58,1.02-1.04,1.8-1.38c0.77-0.33,1.64-0.5,2.61-0.5c1.46,0,2.62,0.37,3.48,1.1c0.86,0.73,1.29,1.77,1.29,3.1v5.14
	c0.01,1.13,0.16,1.98,0.47,2.55v0.19H-209.2z M-211.82,279.43c0.47,0,0.9-0.1,1.29-0.31c0.39-0.21,0.69-0.49,0.88-0.84v-2.04h-1.18
	c-1.59,0-2.43,0.55-2.53,1.64l-0.01,0.19c0,0.39,0.14,0.72,0.42,0.98C-212.68,279.3-212.3,279.43-211.82,279.43z"/>
<path class="st1" d="M-258.13,277.95c0.91,0,1.72,0.41,2.26,1.06c0.86-0.67,1.42-1.72,1.42-2.9c0-2.03-1.65-3.68-3.68-3.68
	c-2.03,0-3.68,1.65-3.68,3.68c0,1.18,0.56,2.22,1.42,2.9C-259.85,278.36-259.04,277.95-258.13,277.95z"/>
<path d="M-251.88,276.11c0-3.46-2.8-6.26-6.26-6.26c-3.46,0-6.26,2.8-6.26,6.26c0,2.43,1.39,4.54,3.42,5.57
	c-0.07-0.25-0.11-0.51-0.11-0.79c0-0.72,0.26-1.38,0.68-1.89c-0.86-0.67-1.42-1.72-1.42-2.9c0-2.03,1.65-3.68,3.68-3.68
	c2.03,0,3.68,1.65,3.68,3.68c0,1.18-0.56,2.22-1.42,2.9c0.43,0.51,0.68,1.17,0.68,1.89c0,0.27-0.04,0.54-0.11,0.79
	C-253.27,280.65-251.88,278.55-251.88,276.11z"/>
<circle class="st0" cx="-258.13" cy="276.11" r="1.84"/>
<path d="M-242.62,381h9.23l-8.44-14.51c-1.87,2.89-3.39,5.55-4.59,7.83L-242.62,381z"/>
<path class="st0" d="M-242.98,348.77l-5.42,9.62l-5.3-9.62h-9.23l9.14,15.79l-9.56,16.44h4.72c5.16-14.08,12.1-24.51,19.65-32.23
	H-242.98z"/>
<path class="st2" d="M-254.09,381h-4.54c-0.12,0.33-0.25,0.66-0.37,1h9c0,0,1.12-3.03,3.58-7.69l-1.95-3.44L-254.09,381z"/>
<path class="st2" d="M-186,327c0,0-29.46-2.26-52.98,21.77h5.2l-9.17,15.79l1.12,1.93C-232.63,352.25-215.05,332.56-186,327z"/>
<path class="st0" d="M-263,381h9c0,0,17-46,64-55C-190,326-242,322-263,381z"/>
<text transform="matrix(1 0 0 1 -300.2441 397.2031)" style="font-family:'Anton-Regular'; font-size:9.8988px;">Extrordinart data insights</text>
<path class="st0" d="M496.15,359.83h-86.98v58.89h102.08v36.39H363.87V235.25h147.08v36.69H409.17v52.4h86.98V359.83z"/>
<path d="M683.94,448.67h59.52l-54.4-93.55c-12.03,18.62-21.84,35.78-29.59,50.45L683.94,448.67z"/>
<path class="st1" d="M848.27,267.18h-21.98v144.37h21.54c17.43,0,30.75-5.69,39.95-17.08c9.21-11.39,13.91-27.68,14.11-48.87v-11.44
	c0-21.98-4.55-38.64-13.66-49.98C879.11,272.85,865.79,267.18,848.27,267.18z"/>
<path class="st0" d="M899.29,243.94c-15-8.57-32.01-12.85-51.02-12.85h-39.31c-9.42,6.63-18.51,13.45-27.24,20.44v195.82h66.99
	c18.91-0.1,35.89-4.46,50.95-13.07c15.05-8.61,26.71-20.74,34.98-36.39c8.27-15.65,12.4-33.52,12.4-53.62v-9.95
	c0-20.1-4.21-38.05-12.63-53.84C926,264.68,914.29,252.5,899.29,243.94z M901.89,345.61c-0.2,21.19-4.9,37.48-14.11,48.87
	c-9.21,11.39-22.53,17.08-39.95,17.08h-21.54V267.18h21.98c17.53,0,30.84,5.67,39.95,17.01c9.11,11.34,13.66,28,13.66,49.98V345.61z
	"/>
<path class="st0" d="M640.71,292.07l-28.19-51.15H553l54.92,94.81c-20.86,31.74-39.71,69.06-55.32,112.94h47.84
	c0,0,90.37-244.53,340.22-292.37C940.65,156.3,768.2,143.08,640.71,292.07z"/>
<g>
	<path d="M365.46,529.93v-49.09h19.64v9.48h-9.65v9.57h9.26v9.23h-9.26v11.24h10.29v9.57H365.46z"/>
	<path d="M387.02,529.93l7.67-22.48l-6.97-19.38h10.18l3.6,10.15l3.54-10.15h7.42l-7.2,20.7l7.53,21.17h-10.01l-4.24-11.77
		l-3.96,11.77H387.02z"/>
	<path d="M423.62,530.38c-2.7,0-4.52-0.57-5.45-1.71c-0.94-1.14-1.41-2.9-1.41-5.26v-26.08h-2.82v-7.61h2.82v-8.87h9.71v8.87h2.82
		v7.61h-2.82v23.74c0,0.69,0.11,1.17,0.33,1.45c0.22,0.28,0.65,0.42,1.28,0.42c0.45,0,0.85-0.04,1.2-0.11v6.81
		c-0.22,0.07-0.92,0.22-2.09,0.43S424.82,530.38,423.62,530.38z"/>
	<path d="M432.46,529.93v-41.84h10.15v4.66c0.48-1.62,1.34-2.88,2.56-3.79c1.23-0.91,2.77-1.37,4.63-1.37v8.34
		c-0.82,0-1.79,0.09-2.93,0.27c-1.14,0.18-2.13,0.42-2.99,0.72c-0.86,0.31-1.28,0.65-1.28,1.02v31.99H432.46z"/>
	<path d="M464.42,530.38c-8.33,0-12.5-4.32-12.5-12.97v-16.79c0-3.94,1.11-7.09,3.32-9.44s5.27-3.53,9.18-3.53
		c3.92,0,6.99,1.18,9.2,3.53c2.21,2.35,3.32,5.5,3.32,9.44v16.79C476.95,526.06,472.77,530.38,464.42,530.38z M464.42,522.68
		c0.84,0,1.44-0.3,1.8-0.91c0.36-0.6,0.54-1.37,0.54-2.3v-20.44c0-2.44-0.78-3.65-2.34-3.65c-1.56,0-2.34,1.22-2.34,3.65v20.44
		c0,0.93,0.18,1.7,0.54,2.3C462.99,522.38,463.59,522.68,464.42,522.68z"/>
	<path d="M480.63,529.93v-41.84h10.15v4.66c0.48-1.62,1.34-2.88,2.56-3.79c1.23-0.91,2.77-1.37,4.63-1.37v8.34
		c-0.82,0-1.79,0.09-2.93,0.27c-1.14,0.18-2.13,0.42-2.99,0.72c-0.86,0.31-1.28,0.65-1.28,1.02v31.99H480.63z"/>
	<path d="M508.66,530.38c-1.93,0-3.47-0.35-4.6-1.06s-1.98-1.68-2.54-2.93c-0.56-1.25-0.93-2.71-1.1-4.38
		c-0.18-1.67-0.26-3.47-0.26-5.38v-18.19c0-3.22,0.57-5.82,1.72-7.81c1.14-1.99,3.08-2.99,5.82-2.99c2.02,0,3.58,0.44,4.67,1.3
		c1.09,0.87,1.93,2.07,2.53,3.61v-11.71h10.15v49.09h-10.15v-4.44c-0.56,1.51-1.3,2.7-2.22,3.57
		C511.74,529.94,510.41,530.38,508.66,530.38z M512.48,522.57c0.95,0,1.58-0.38,1.91-1.14c0.32-0.76,0.49-2.13,0.49-4.1v-17.6
		c0-0.99-0.14-1.96-0.43-2.92c-0.29-0.96-0.93-1.44-1.91-1.44c-1.08,0-1.76,0.46-2.03,1.37c-0.28,0.91-0.42,1.91-0.42,2.99v17.6
		C510.08,520.82,510.88,522.57,512.48,522.57z"/>
	<path d="M528.83,485.53v-8.31h9.98v8.31H528.83z M528.83,529.93v-41.84h9.98v41.84H528.83z"/>
	<path d="M542.77,529.93v-41.84h9.99v5.33c0.37-1.6,1.06-2.96,2.08-4.08c1.01-1.12,2.42-1.69,4.23-1.69c2.9,0,5.01,0.9,6.32,2.68
		c1.31,1.79,1.97,4.23,1.97,7.34v32.27h-9.85v-31.24c0-0.82-0.17-1.57-0.5-2.27c-0.34-0.7-0.91-1.04-1.73-1.04
		c-0.76,0-1.32,0.26-1.69,0.79c-0.36,0.53-0.59,1.19-0.68,1.98c-0.09,0.79-0.14,1.58-0.14,2.36v29.43H542.77z"/>
	<path d="M578.87,530.38c-2.32,0-4.09-0.54-5.31-1.62c-1.22-1.07-2.05-2.55-2.5-4.43c-0.45-1.88-0.67-4.01-0.67-6.39
		c0-2.54,0.25-4.63,0.75-6.26c0.5-1.63,1.36-2.96,2.58-4.01c1.22-1.04,2.9-1.92,5.04-2.65l6.19-2.12v-4.3
		c0-2.25-0.74-3.37-2.21-3.37c-1.34,0-2.01,0.91-2.01,2.73v2.51h-9.71c-0.02-0.15-0.03-0.34-0.03-0.57s0-0.5,0-0.79
		c0-4.17,0.98-7.12,2.94-8.86c1.96-1.74,5.07-2.61,9.33-2.61c2.23,0,4.23,0.4,6,1.19c1.77,0.79,3.17,1.96,4.2,3.5
		c1.03,1.54,1.55,3.45,1.55,5.72v31.88h-9.93v-4.97c-0.48,1.75-1.28,3.09-2.4,4.02C581.57,529.91,580.3,530.38,578.87,530.38z
		 M582.8,522.63c0.82,0,1.38-0.34,1.67-1.03s0.45-1.44,0.45-2.23V507.7c-1.38,0.56-2.45,1.26-3.21,2.1
		c-0.76,0.85-1.14,2.09-1.14,3.72v5.39C580.57,521.39,581.31,522.63,582.8,522.63z"/>
	<path d="M598.87,529.93v-41.84h10.15v4.66c0.48-1.62,1.34-2.88,2.56-3.79c1.23-0.91,2.77-1.37,4.63-1.37v8.34
		c-0.82,0-1.79,0.09-2.93,0.27c-1.14,0.18-2.13,0.42-2.99,0.72c-0.86,0.31-1.28,0.65-1.28,1.02v31.99H598.87z"/>
	<path d="M627.26,530.38c-2.7,0-4.52-0.57-5.45-1.71c-0.94-1.14-1.41-2.9-1.41-5.26v-26.08h-2.82v-7.61h2.82v-8.87h9.71v8.87h2.82
		v7.61h-2.82v23.74c0,0.69,0.11,1.17,0.33,1.45c0.22,0.28,0.65,0.42,1.28,0.42c0.45,0,0.85-0.04,1.2-0.11v6.81
		c-0.22,0.07-0.92,0.22-2.09,0.43C629.66,530.27,628.47,530.38,627.26,530.38z"/>
	<path d="M657.72,530.38c-1.93,0-3.47-0.35-4.6-1.06c-1.13-0.71-1.98-1.68-2.54-2.93c-0.56-1.25-0.93-2.71-1.1-4.38
		c-0.18-1.67-0.26-3.47-0.26-5.38v-18.19c0-3.22,0.57-5.82,1.72-7.81c1.14-1.99,3.08-2.99,5.82-2.99c2.02,0,3.58,0.44,4.67,1.3
		c1.09,0.87,1.93,2.07,2.53,3.61v-11.71h10.15v49.09h-10.15v-4.44c-0.56,1.51-1.3,2.7-2.22,3.57
		C660.8,529.94,659.47,530.38,657.72,530.38z M661.54,522.57c0.95,0,1.58-0.38,1.91-1.14c0.32-0.76,0.49-2.13,0.49-4.1v-17.6
		c0-0.99-0.14-1.96-0.43-2.92c-0.29-0.96-0.93-1.44-1.91-1.44c-1.08,0-1.76,0.46-2.03,1.37c-0.28,0.91-0.42,1.91-0.42,2.99v17.6
		C659.14,520.82,659.94,522.57,661.54,522.57z"/>
	<path d="M685.56,530.38c-2.32,0-4.09-0.54-5.31-1.62c-1.22-1.07-2.05-2.55-2.5-4.43c-0.45-1.88-0.67-4.01-0.67-6.39
		c0-2.54,0.25-4.63,0.75-6.26c0.5-1.63,1.36-2.96,2.58-4.01c1.22-1.04,2.9-1.92,5.04-2.65l6.19-2.12v-4.3
		c0-2.25-0.74-3.37-2.21-3.37c-1.34,0-2.01,0.91-2.01,2.73v2.51h-9.71c-0.02-0.15-0.03-0.34-0.03-0.57s0-0.5,0-0.79
		c0-4.17,0.98-7.12,2.94-8.86c1.96-1.74,5.07-2.61,9.33-2.61c2.23,0,4.23,0.4,6,1.19c1.77,0.79,3.17,1.96,4.2,3.5
		c1.03,1.54,1.55,3.45,1.55,5.72v31.88h-9.93v-4.97c-0.48,1.75-1.28,3.09-2.4,4.02C688.26,529.91,686.99,530.38,685.56,530.38z
		 M689.49,522.63c0.82,0,1.38-0.34,1.67-1.03s0.45-1.44,0.45-2.23V507.7c-1.38,0.56-2.45,1.26-3.21,2.1
		c-0.76,0.85-1.14,2.09-1.14,3.72v5.39C687.26,521.39,688,522.63,689.49,522.63z"/>
	<path d="M714.15,530.38c-2.7,0-4.52-0.57-5.45-1.71c-0.94-1.14-1.41-2.9-1.41-5.26v-26.08h-2.82v-7.61h2.82v-8.87h9.71v8.87h2.82
		v7.61h-2.82v23.74c0,0.69,0.11,1.17,0.33,1.45c0.22,0.28,0.65,0.42,1.28,0.42c0.45,0,0.85-0.04,1.2-0.11v6.81
		c-0.22,0.07-0.92,0.22-2.09,0.43C716.55,530.27,715.36,530.38,714.15,530.38z"/>
	<path d="M730.6,530.38c-2.32,0-4.09-0.54-5.31-1.62c-1.22-1.07-2.05-2.55-2.5-4.43c-0.45-1.88-0.67-4.01-0.67-6.39
		c0-2.54,0.25-4.63,0.75-6.26c0.5-1.63,1.36-2.96,2.58-4.01c1.22-1.04,2.9-1.92,5.04-2.65l6.19-2.12v-4.3
		c0-2.25-0.74-3.37-2.21-3.37c-1.34,0-2.01,0.91-2.01,2.73v2.51h-9.71c-0.02-0.15-0.03-0.34-0.03-0.57s0-0.5,0-0.79
		c0-4.17,0.98-7.12,2.94-8.86c1.96-1.74,5.07-2.61,9.33-2.61c2.23,0,4.23,0.4,6,1.19c1.77,0.79,3.17,1.96,4.2,3.5
		c1.03,1.54,1.55,3.45,1.55,5.72v31.88h-9.93v-4.97c-0.48,1.75-1.28,3.09-2.4,4.02C733.31,529.91,732.04,530.38,730.6,530.38z
		 M734.54,522.63c0.82,0,1.38-0.34,1.67-1.03s0.45-1.44,0.45-2.23V507.7c-1.38,0.56-2.45,1.26-3.21,2.1
		c-0.76,0.85-1.14,2.09-1.14,3.72v5.39C732.31,521.39,733.05,522.63,734.54,522.63z"/>
	<path d="M763.94,485.53v-8.31h9.98v8.31H763.94z M763.94,529.93v-41.84h9.98v41.84H763.94z"/>
	<path d="M777.88,529.93v-41.84h9.99v5.33c0.37-1.6,1.06-2.96,2.08-4.08c1.01-1.12,2.42-1.69,4.23-1.69c2.9,0,5.01,0.9,6.32,2.68
		c1.31,1.79,1.97,4.23,1.97,7.34v32.27h-9.85v-31.24c0-0.82-0.17-1.57-0.5-2.27c-0.34-0.7-0.91-1.04-1.73-1.04
		c-0.76,0-1.32,0.26-1.69,0.79c-0.36,0.53-0.59,1.19-0.68,1.98c-0.09,0.79-0.14,1.58-0.14,2.36v29.43H777.88z"/>
	<path d="M817.82,530.38c-8.26,0-12.39-4.18-12.39-12.55v-3.32h10.04v4.91c0,0.95,0.19,1.69,0.56,2.23
		c0.37,0.54,0.97,0.81,1.78,0.81c1.45,0,2.18-1.09,2.18-3.26c0-1.82-0.38-3.18-1.14-4.08c-0.76-0.9-1.69-1.77-2.79-2.61l-5.33-4.1
		c-1.67-1.3-2.95-2.68-3.82-4.13c-0.88-1.45-1.31-3.47-1.31-6.06c0-2.4,0.57-4.38,1.72-5.94c1.14-1.56,2.66-2.72,4.55-3.49
		c1.89-0.76,3.93-1.14,6.12-1.14c8.11,0,12.16,4.05,12.16,12.13v0.78h-10.32v-1.59c0-0.84-0.14-1.65-0.43-2.43
		c-0.29-0.78-0.85-1.17-1.69-1.17c-1.41,0-2.12,0.74-2.12,2.23c0,1.51,0.59,2.69,1.78,3.54l6.19,4.52c1.93,1.39,3.56,3.05,4.87,4.96
		c1.31,1.92,1.97,4.47,1.97,7.64c0,3.94-1.12,6.95-3.36,9.01C824.8,529.35,821.73,530.38,817.82,530.38z"/>
	<path d="M833.42,485.53v-8.31h9.98v8.31H833.42z M833.42,529.93v-41.84h9.98v41.84H833.42z"/>
	<path d="M858.63,537.19c-1.93,0-3.59-0.1-4.98-0.29c-1.39-0.2-2.63-0.54-3.72-1.05c-1.1-0.5-2.2-1.21-3.29-2.12l3.38-5.77
		c2.44,1.45,4.87,2.17,7.31,2.17c1.6,0,2.79-0.51,3.57-1.53c0.78-1.02,1.17-2.36,1.17-3.99v-4.1c-0.8,2.86-2.93,4.29-6.39,4.29
		c-1.99,0-3.6-0.47-4.82-1.42c-1.23-0.95-2.12-2.23-2.68-3.85c-0.56-1.62-0.84-3.42-0.84-5.41v-15.04c0-2.25,0.24-4.23,0.73-5.96
		c0.48-1.72,1.33-3.06,2.54-4.03c1.21-0.97,2.9-1.45,5.08-1.45c1.84,0,3.28,0.47,4.31,1.4c1.03,0.93,1.72,2.18,2.08,3.76v-4.71
		h10.18v35.87c0,4.74-1.09,8.13-3.28,10.17C866.78,536.17,863.34,537.19,858.63,537.19z M859.72,517.27c1.56,0,2.34-1.41,2.34-4.24
		v-14.22c0-0.76-0.22-1.54-0.66-2.34c-0.44-0.8-1.03-1.2-1.8-1.2c-0.97,0-1.57,0.36-1.81,1.07c-0.24,0.72-0.36,1.54-0.36,2.47v14.22
		c0,1.01,0.13,1.96,0.38,2.87C858.06,516.81,858.7,517.27,859.72,517.27z"/>
	<path d="M876.15,529.93v-49.09h10.27v11.41c0.54-1.56,1.37-2.72,2.48-3.48c1.11-0.75,2.42-1.13,3.9-1.13c2.9,0,5.01,0.91,6.33,2.73
		c1.32,1.82,1.98,4.27,1.98,7.34v32.22h-10.1v-31.57c0-0.91-0.19-1.66-0.57-2.23c-0.38-0.57-0.98-0.87-1.8-0.87
		c-0.69,0-1.23,0.3-1.63,0.9c-0.4,0.59-0.6,1.3-0.6,2.12v31.66H876.15z"/>
	<path d="M913.61,530.38c-2.7,0-4.52-0.57-5.45-1.71c-0.94-1.14-1.41-2.9-1.41-5.26v-26.08h-2.82v-7.61h2.82v-8.87h9.71v8.87h2.82
		v7.61h-2.82v23.74c0,0.69,0.11,1.17,0.33,1.45c0.22,0.28,0.65,0.42,1.28,0.42c0.45,0,0.85-0.04,1.2-0.11v6.81
		c-0.22,0.07-0.92,0.22-2.09,0.43C916.01,530.27,914.82,530.38,913.61,530.38z"/>
	<path d="M933.91,530.38c-8.26,0-12.39-4.18-12.39-12.55v-3.32h10.04v4.91c0,0.95,0.19,1.69,0.56,2.23
		c0.37,0.54,0.97,0.81,1.78,0.81c1.45,0,2.18-1.09,2.18-3.26c0-1.82-0.38-3.18-1.14-4.08c-0.76-0.9-1.69-1.77-2.79-2.61l-5.33-4.1
		c-1.67-1.3-2.95-2.68-3.82-4.13c-0.88-1.45-1.31-3.47-1.31-6.06c0-2.4,0.57-4.38,1.72-5.94c1.14-1.56,2.66-2.72,4.55-3.49
		c1.89-0.76,3.93-1.14,6.12-1.14c8.11,0,12.16,4.05,12.16,12.13v0.78h-10.32v-1.59c0-0.84-0.14-1.65-0.43-2.43
		c-0.29-0.78-0.85-1.17-1.69-1.17c-1.41,0-2.12,0.74-2.12,2.23c0,1.51,0.59,2.69,1.78,3.54l6.19,4.52c1.93,1.39,3.56,3.05,4.87,4.96
		c1.31,1.92,1.97,4.47,1.97,7.64c0,3.94-1.12,6.95-3.36,9.01C940.89,529.35,937.82,530.38,933.91,530.38z"/>
</g>
</svg>
