<svg width="17" height="17" viewBox="0 0 17 17" fill="none" xmlns="http://www.w3.org/2000/svg">
<path d="M7.29584 12.0594L11.3688 7.98649L10.6604 7.27816L7.31354 10.625L5.54271 8.8542L4.81667 9.58024L7.29584 12.0594ZM4.44479 14.1667C3.40591 14.1667 2.52344 13.8037 1.7974 13.0776C1.07136 12.3516 0.708336 11.4691 0.708336 10.4302C0.708336 9.50941 1.00347 8.70073 1.59375 8.0042C2.18403 7.30767 2.93368 6.88857 3.84271 6.74691C4.07882 5.60177 4.63368 4.66618 5.50729 3.94014C6.38091 3.2141 7.39028 2.85107 8.53542 2.85107C9.85764 2.85107 10.9733 3.33215 11.8823 4.2943C12.7913 5.25646 13.2458 6.41045 13.2458 7.75628V8.18128C14.0958 8.15767 14.816 8.43215 15.4063 9.00472C15.9965 9.57729 16.2917 10.3004 16.2917 11.174C16.2917 11.9886 15.9965 12.691 15.4063 13.2813C14.816 13.8716 14.1135 14.1667 13.299 14.1667H4.44479ZM4.44479 13.1042H13.299C13.8302 13.1042 14.2847 12.9153 14.6625 12.5375C15.0403 12.1598 15.2292 11.7052 15.2292 11.174C15.2292 10.6427 15.0403 10.1882 14.6625 9.81045C14.2847 9.43267 13.8302 9.24378 13.299 9.24378H12.1833V7.75628C12.1833 6.68198 11.8233 5.77295 11.1031 5.0292C10.383 4.28545 9.50347 3.91357 8.46459 3.91357C7.4257 3.91357 6.54323 4.28545 5.81719 5.0292C5.09115 5.77295 4.72813 6.68198 4.72813 7.75628H4.39167C3.65972 7.75628 3.03993 8.01305 2.53229 8.5266C2.02466 9.04014 1.77084 9.67469 1.77084 10.4302C1.77084 11.174 2.03056 11.8056 2.55 12.325C3.06945 12.8445 3.70104 13.1042 4.44479 13.1042Z" fill="white"/>
</svg>
