<svg width="17" height="17" viewBox="0 0 17 17" fill="none" xmlns="http://www.w3.org/2000/svg">
<path d="M8.48385 10.6526C8.92771 10.6526 9.29273 10.4803 9.5789 10.1357C9.86507 9.79117 10.0082 9.39111 10.0082 8.93557C10.0082 8.55011 9.85631 8.23182 9.55262 7.98068C9.24893 7.72955 8.89267 7.60399 8.48385 7.60399C8.07503 7.60399 7.71877 7.72955 7.41508 7.98068C7.11138 8.23182 6.95954 8.55011 6.95954 8.93557C6.95954 9.39111 7.10262 9.79117 7.3888 10.1357C7.67497 10.4803 8.03999 10.6526 8.48385 10.6526ZM3.92843 15.4183C3.6481 15.4183 3.40281 15.3132 3.19256 15.1029C2.98231 14.8927 2.87718 14.6474 2.87718 14.367V2.45286C2.87718 2.17253 2.98231 1.92724 3.19256 1.71699C3.40281 1.50674 3.6481 1.40161 3.92843 1.40161H9.90304L14.0905 5.58909V14.367C14.0905 14.6474 13.9854 14.8927 13.7751 15.1029C13.5649 15.3132 13.3196 15.4183 13.0393 15.4183H3.92843ZM3.92843 14.367H12.9692L9.92056 11.3184C9.68695 11.4586 9.45626 11.5579 9.22848 11.6163C9.00071 11.6747 8.7525 11.7039 8.48385 11.7039C7.75965 11.7039 7.14935 11.4556 6.65292 10.9592C6.1565 10.4628 5.90829 9.85249 5.90829 9.1283C5.90829 8.4041 6.1565 7.7938 6.65292 7.29737C7.14935 6.80095 7.75965 6.55274 8.48385 6.55274C9.20804 6.55274 9.81835 6.80095 10.3148 7.29737C10.8112 7.7938 11.0594 8.4041 11.0594 9.1283C11.0594 9.39695 11.0214 9.65392 10.9455 9.89922C10.8696 10.1445 10.7557 10.3606 10.6039 10.5475L13.0393 12.9829V6.06215L9.42997 2.45286H3.92843V14.367Z" fill="white"/>
</svg>
