<svg width="17" height="16" viewBox="0 0 17 16" fill="none" xmlns="http://www.w3.org/2000/svg">
<path d="M3.95751 13.5C3.32417 12.8889 2.82139 12.1694 2.44917 11.3417C2.07695 10.5139 1.89084 9.62222 1.89084 8.66667C1.89084 7.74444 2.06584 6.87778 2.41584 6.06667C2.76584 5.25556 3.24084 4.55 3.84084 3.95C4.44084 3.35 5.14639 2.875 5.95751 2.525C6.76862 2.175 7.63528 2 8.5575 2C9.47973 2 10.3464 2.175 11.1575 2.525C11.9686 2.875 12.6742 3.35 13.2742 3.95C13.8742 4.55 14.3492 5.25556 14.6992 6.06667C15.0492 6.87778 15.2242 7.74444 15.2242 8.66667C15.2242 9.62222 15.0381 10.5139 14.6658 11.3417C14.2936 12.1694 13.7908 12.8889 13.1575 13.5L12.4408 12.7833C12.9964 12.2611 13.4325 11.65 13.7492 10.95C14.0658 10.25 14.2242 9.48889 14.2242 8.66667C14.2242 7.08889 13.6742 5.75 12.5742 4.65C11.4742 3.55 10.1353 3 8.5575 3C6.97973 3 5.64084 3.55 4.54084 4.65C3.44084 5.75 2.89084 7.08889 2.89084 8.66667C2.89084 9.48889 3.04917 10.25 3.36584 10.95C3.68251 11.65 4.11862 12.2611 4.67417 12.7833L3.95751 13.5ZM5.84084 11.6167C5.45195 11.25 5.14084 10.8139 4.90751 10.3083C4.67417 9.80278 4.55751 9.25556 4.55751 8.66667C4.55751 7.55556 4.94639 6.61111 5.72417 5.83333C6.50195 5.05556 7.44639 4.66667 8.5575 4.66667C9.66862 4.66667 10.6131 5.05556 11.3908 5.83333C12.1686 6.61111 12.5575 7.55556 12.5575 8.66667C12.5575 9.25556 12.4408 9.80278 12.2075 10.3083C11.9742 10.8139 11.6631 11.25 11.2742 11.6167L10.5575 10.9C10.8686 10.6222 11.1131 10.2944 11.2908 9.91667C11.4686 9.53889 11.5575 9.12222 11.5575 8.66667C11.5575 7.83333 11.2658 7.125 10.6825 6.54167C10.0992 5.95833 9.39084 5.66667 8.5575 5.66667C7.72417 5.66667 7.01584 5.95833 6.43251 6.54167C5.84917 7.125 5.55751 7.83333 5.55751 8.66667C5.55751 9.12222 5.64639 9.53889 5.82417 9.91667C6.00195 10.2944 6.24639 10.6222 6.55751 10.9L5.84084 11.6167ZM8.5575 10C8.19084 10 7.87695 9.86944 7.61584 9.60833C7.35473 9.34722 7.22417 9.03333 7.22417 8.66667C7.22417 8.3 7.35473 7.98611 7.61584 7.725C7.87695 7.46389 8.19084 7.33333 8.5575 7.33333C8.92417 7.33333 9.23806 7.46389 9.49917 7.725C9.76028 7.98611 9.89084 8.3 9.89084 8.66667C9.89084 9.03333 9.76028 9.34722 9.49917 9.60833C9.23806 9.86944 8.92417 10 8.5575 10Z" fill="white"/>
</svg>
