<svg width="17" height="16" viewBox="0 0 17 16" fill="none" xmlns="http://www.w3.org/2000/svg">
<path d="M6.73183 6.15385C5.87029 6.15385 5.13867 5.85299 4.53696 5.25128C3.93525 4.64957 3.6344 3.92479 3.6344 3.07692C3.6344 2.21538 3.93525 1.48718 4.53696 0.892308C5.13867 0.297436 5.86346 0 6.71132 0C7.57286 0 8.30106 0.297436 8.89594 0.892308C9.49081 1.48718 9.78824 2.20855 9.78824 3.05641C9.78824 3.91795 9.49081 4.64957 8.89594 5.25128C8.30106 5.85299 7.5797 6.15385 6.73183 6.15385ZM6.71132 4.92308C7.23098 4.92308 7.66858 4.74188 8.02414 4.37949C8.3797 4.01709 8.55747 3.58291 8.55747 3.07692C8.55747 2.55726 8.3797 2.11966 8.02414 1.7641C7.66858 1.40855 7.23781 1.23077 6.73183 1.23077C6.21217 1.23077 5.77115 1.40855 5.40876 1.7641C5.04636 2.11966 4.86517 2.55043 4.86517 3.05641C4.86517 3.57607 5.04636 4.01709 5.40876 4.37949C5.77115 4.74188 6.20534 4.92308 6.71132 4.92308ZM16.1062 16L13.2344 13.1282C12.9199 13.3607 12.5951 13.5214 12.26 13.6103C11.925 13.6991 11.5797 13.7436 11.2241 13.7436C10.2532 13.7436 9.42927 13.4051 8.75235 12.7282C8.07542 12.0513 7.73696 11.2274 7.73696 10.2564C7.73696 9.28547 8.07542 8.46154 8.75235 7.78462C9.42927 7.10769 10.2532 6.76923 11.2241 6.76923C12.1951 6.76923 13.019 7.10769 13.6959 7.78462C14.3729 8.46154 14.7113 9.28547 14.7113 10.2564C14.7113 10.612 14.6669 10.9573 14.578 11.2923C14.4891 11.6274 14.3284 11.9521 14.0959 12.2667L16.9677 15.1385L16.1062 16ZM11.2241 12.5128C11.8669 12.5128 12.4036 12.2974 12.8344 11.8667C13.2652 11.4359 13.4806 10.8991 13.4806 10.2564C13.4806 9.61368 13.2652 9.07692 12.8344 8.64615C12.4036 8.21539 11.8669 8 11.2241 8C10.5814 8 10.0447 8.21539 9.61388 8.64615C9.18311 9.07692 8.96773 9.61368 8.96773 10.2564C8.96773 10.8991 9.18311 11.4359 9.61388 11.8667C10.0447 12.2974 10.5814 12.5128 11.2241 12.5128ZM0.147217 13.1282V11.2C0.147217 10.694 0.266875 10.2632 0.506191 9.90769C0.745507 9.55214 1.09081 9.25812 1.54209 9.02564C2.18482 8.71111 3.02243 8.41368 4.05491 8.13333C5.08739 7.85299 6.13696 7.74701 7.20363 7.81538C7.09423 7.99316 6.99166 8.18803 6.89594 8.4C6.80021 8.61197 6.72499 8.82051 6.67029 9.02564C5.60363 9.01197 4.67371 9.13846 3.88055 9.40513C3.08739 9.67179 2.472 9.91453 2.0344 10.1333C1.84294 10.2427 1.68568 10.3897 1.5626 10.5744C1.43952 10.759 1.37799 10.9675 1.37799 11.2V11.8974H6.67029C6.82072 12.1299 6.95747 12.3453 7.08055 12.5436C7.20363 12.7419 7.34038 12.9368 7.49081 13.1282H0.147217Z" fill="white"/>
</svg>
