<svg width="171" height="45" viewBox="0 0 171 45" fill="none" xmlns="http://www.w3.org/2000/svg">
<g clip-path="url(#clip0_381_229)">
<path d="M33.2496 14.2506L36.6118 8.32617H42.3188L36.6304 18.0504L42.5608 28.1749H36.8351L33.2682 21.9364L29.72 28.1749H23.9757L29.9061 18.0504L24.2362 8.32617H29.9619L33.2496 14.2506Z" fill="black"/>
<path d="M52.3434 3.44873V8.32625H55.7614V12.2122H52.3434V22.1151C52.3434 22.8479 52.4861 23.3776 52.7714 23.6917C53.0568 24.0119 53.5964 24.1659 54.3967 24.1659C54.986 24.1659 55.5133 24.1227 55.9661 24.0365V28.0519C54.9177 28.3721 53.8384 28.5261 52.7342 28.5261C48.9874 28.5261 47.083 26.6477 47.0085 22.8972V12.2184H44.0868V8.3324H47.0085V3.44873H52.3434Z" fill="black"/>
<path d="M71.0277 13.2962C70.302 13.1977 69.663 13.1484 69.1047 13.1484C67.0825 13.1484 65.7611 13.8258 65.1346 15.1868V28.1751H59.7936V8.3263H64.8369L64.9857 10.6912C66.0589 8.86824 67.5415 7.95679 69.4397 7.95679C70.029 7.95679 70.5873 8.03685 71.1022 8.19697L71.0277 13.2962Z" fill="black"/>
<path d="M95.6114 18.1059C95.6114 15.0144 96.3124 12.551 97.7081 10.7158C99.1038 8.88053 101.021 7.96291 103.446 7.96291C105.394 7.96291 107.001 8.68345 108.266 10.1245V0H113.626V28.175H108.806L108.545 26.0627C107.218 27.7132 105.506 28.5384 103.409 28.5384C101.058 28.5384 99.1659 27.6208 97.7453 25.7794C96.3248 23.938 95.6114 21.3822 95.6114 18.1059ZM100.952 18.5001C100.952 20.3599 101.281 21.7887 101.933 22.7802C102.584 23.7717 103.533 24.2706 104.78 24.2706C106.43 24.2706 107.596 23.5808 108.272 22.1952V14.3493C107.609 12.9636 106.455 12.2738 104.817 12.2738C102.243 12.2738 100.952 14.3493 100.952 18.5001Z" fill="black"/>
<path d="M130.412 28.1751C130.164 27.7009 129.984 27.1035 129.872 26.3953C128.582 27.824 126.901 28.5384 124.829 28.5384C122.869 28.5384 121.25 27.978 119.959 26.851C118.675 25.724 118.03 24.3075 118.03 22.5955C118.03 20.4893 118.818 18.8758 120.387 17.7549C121.957 16.6279 124.227 16.0613 127.199 16.049H129.655V14.9097C129.655 13.9921 129.419 13.2592 128.942 12.7111C128.47 12.163 127.72 11.8859 126.696 11.8859C125.797 11.8859 125.089 12.1014 124.581 12.5264C124.072 12.9575 123.812 13.5425 123.812 14.2877H118.471C118.471 13.1361 118.83 12.0768 119.544 11.0976C120.257 10.1184 121.268 9.35476 122.571 8.79434C123.874 8.24008 125.344 7.95679 126.969 7.95679C129.432 7.95679 131.386 8.57263 132.837 9.79817C134.283 11.0299 135.009 12.7542 135.009 14.9775V23.587C135.021 25.4715 135.288 26.8941 135.803 27.861V28.1751H130.412ZM125.995 24.4861C126.783 24.4861 127.509 24.3137 128.172 23.9627C128.836 23.6116 129.332 23.1436 129.649 22.5585V19.1529H127.651C124.978 19.1529 123.557 20.0705 123.384 21.9057L123.365 22.2198C123.365 22.8788 123.601 23.4269 124.066 23.8518C124.544 24.2768 125.182 24.4861 125.995 24.4861Z" fill="black"/>
<path d="M146.565 3.44873V8.32625H149.983V12.2122H146.565V22.1151C146.565 22.8479 146.708 23.3776 146.993 23.6917C147.279 24.0119 147.818 24.1659 148.619 24.1659C149.208 24.1659 149.735 24.1227 150.188 24.0365V28.0519C149.14 28.3721 148.066 28.5261 146.956 28.5261C143.209 28.5261 141.305 26.6477 141.23 22.8972V12.2184H138.309V8.3324H141.23V3.44873H146.565Z" fill="black"/>
<path d="M165.603 28.1751C165.355 27.7009 165.181 27.1035 165.07 26.3953C163.779 27.824 162.098 28.5384 160.026 28.5384C158.066 28.5384 156.447 27.978 155.157 26.851C153.866 25.724 153.228 24.3075 153.228 22.5955C153.228 20.4893 154.015 18.8758 155.585 17.7549C157.154 16.6279 159.425 16.0613 162.396 16.049H164.853V14.9097C164.853 13.9921 164.617 13.2592 164.139 12.7111C163.661 12.163 162.917 11.8859 161.894 11.8859C160.994 11.8859 160.287 12.1014 159.778 12.5264C159.27 12.9575 159.009 13.5425 159.009 14.2877H153.668C153.668 13.1361 154.028 12.0768 154.741 11.0976C155.455 10.1184 156.466 9.35476 157.768 8.79434C159.071 8.24008 160.541 7.95679 162.166 7.95679C164.629 7.95679 166.583 8.57263 168.035 9.79817C169.48 11.0299 170.206 12.7542 170.206 14.9775V23.587C170.218 25.4715 170.485 26.8941 171 27.861V28.1751H165.603ZM161.186 24.4861C161.974 24.4861 162.7 24.3137 163.364 23.9627C164.027 23.6116 164.524 23.1436 164.84 22.5585V19.1529H162.843C160.169 19.1529 158.748 20.0705 158.575 21.9057L158.556 22.2198C158.556 22.8788 158.792 23.4269 159.257 23.8518C159.735 24.2768 160.374 24.4861 161.186 24.4861Z" fill="black"/>
<path d="M19.2302 2.92529H0V7.23623H19.2302V2.92529Z" fill="#0058D8"/>
<path d="M19.2302 23.864H0V28.1749H19.2302V23.864Z" fill="#0058D8"/>
<path d="M16.7489 13.3948H0V17.7057H16.7489V13.3948Z" fill="#0058D8"/>
<path d="M93.6698 18.9374C93.6698 13.1546 88.949 8.46802 83.1242 8.46802C77.2993 8.46802 72.5786 13.1546 72.5786 18.9374C72.5786 23.0082 74.9234 26.5308 78.3476 28.2614C78.2298 27.8426 78.1615 27.3992 78.1615 26.9435C78.1615 25.7425 78.5957 24.6402 79.3153 23.7903C77.8638 22.6633 76.9209 20.9081 76.9209 18.9374C76.9209 15.5441 79.7061 12.779 83.1242 12.779C86.5422 12.779 89.3274 15.5441 89.3274 18.9374C89.3274 20.9081 88.3845 22.6572 86.933 23.7903C87.6526 24.6463 88.0868 25.7425 88.0868 26.9435C88.0868 27.3992 88.0185 27.8426 87.9007 28.2614C91.3249 26.5308 93.6698 23.0082 93.6698 18.9374Z" fill="black"/>
<path d="M83.1241 22.0166C84.8371 22.0166 86.2258 20.638 86.2258 18.9374C86.2258 17.2368 84.8371 15.8582 83.1241 15.8582C81.4111 15.8582 80.0225 17.2368 80.0225 18.9374C80.0225 20.638 81.4111 22.0166 83.1241 22.0166Z" fill="#0058D8"/>
<path d="M0 13.3948V13.8813V21.4008L6.98491 13.5672" fill="#0058D8"/>
<path d="M5.24178 39.2417H1.91682V41.9453H5.78147V42.7643H0.899475V35.1401H5.72564V35.9654H1.91682V38.4226H5.24798V39.2417H5.24178Z" fill="black"/>
<path d="M10.5208 39.1679L11.7863 37.0986H12.9277L11.0605 39.9007L12.9835 42.7644H11.8545L10.5394 40.6459L9.21809 42.7644H8.08289L10.0059 39.9007L8.13872 37.0986H9.26771L10.5208 39.1679Z" fill="black"/>
<path d="M17.0032 35.7314V37.1048H18.0702V37.8561H17.0032V41.3726C17.0032 41.6005 17.0529 41.7729 17.1459 41.8838C17.239 41.9946 17.4002 42.0562 17.6298 42.0562C17.7414 42.0562 17.8965 42.0377 18.095 41.9946V42.7767C17.8407 42.8445 17.5863 42.8814 17.3444 42.8814C16.9102 42.8814 16.5814 42.7521 16.3581 42.4873C16.1348 42.2225 16.0231 41.853 16.0231 41.3726V37.8561H14.981V37.1048H16.0231V35.7314H17.0032Z" fill="black"/>
<path d="M23.6842 37.973C23.5353 37.9484 23.374 37.9361 23.2065 37.9361C22.5676 37.9361 22.1334 38.2071 21.9038 38.749V42.7705H20.9299V37.1047H21.879L21.8976 37.7575C22.2202 37.2525 22.6731 37 23.2562 37C23.4485 37 23.5911 37.0246 23.6904 37.0739V37.973H23.6842Z" fill="black"/>
<path d="M29.6145 42.7706C29.5587 42.6598 29.5153 42.4627 29.478 42.1733C29.0252 42.6413 28.4855 42.8753 27.8528 42.8753C27.2883 42.8753 26.8292 42.7152 26.4694 42.4011C26.1096 42.087 25.9297 41.6867 25.9297 41.2002C25.9297 40.609 26.1531 40.1533 26.6059 39.8269C27.0587 39.5005 27.6915 39.3404 28.5103 39.3404H29.4594V38.8969C29.4594 38.5582 29.3602 38.2873 29.1555 38.0902C28.9508 37.887 28.653 37.7884 28.256 37.7884C27.9086 37.7884 27.617 37.8746 27.3813 38.0532C27.1456 38.2257 27.0277 38.4412 27.0277 38.6876H26.0476C26.0476 38.4043 26.1469 38.1333 26.3516 37.8685C26.5563 37.6037 26.8292 37.3943 27.1766 37.2403C27.524 37.0864 27.9024 37.0125 28.318 37.0125C28.9756 37.0125 29.4904 37.1787 29.8626 37.499C30.2348 37.8254 30.4271 38.2749 30.4457 38.8477V41.4589C30.4457 41.9762 30.514 42.395 30.6443 42.7029V42.7891H29.6145V42.7706ZM27.9954 42.0316C28.2994 42.0316 28.591 41.9516 28.8639 41.7976C29.1369 41.6436 29.3354 41.4342 29.4594 41.1879V40.0239H28.6964C27.4992 40.0239 26.9037 40.3688 26.9037 41.0647C26.9037 41.3665 27.0029 41.6067 27.2076 41.7791C27.4123 41.9454 27.6729 42.0316 27.9954 42.0316Z" fill="black"/>
<path d="M33.4233 39.8822C33.4233 39.328 33.535 38.8291 33.7521 38.3857C33.9692 37.9423 34.2794 37.5974 34.6702 37.3572C35.061 37.1171 35.5076 36.9939 36.0101 36.9939C36.7855 36.9939 37.4183 37.2587 37.8959 37.7945C38.3736 38.3303 38.6155 39.0385 38.6155 39.9253V39.9931C38.6155 40.5473 38.51 41.04 38.2991 41.4773C38.0882 41.9145 37.7843 42.2594 37.3872 42.4996C36.9902 42.7459 36.5374 42.8691 36.0225 42.8691C35.2471 42.8691 34.6206 42.6043 34.1429 42.0685C33.6653 41.5327 33.4233 40.8245 33.4233 39.95V39.8822ZM34.4097 39.9992C34.4097 40.6274 34.5585 41.1324 34.8501 41.5142C35.1417 41.896 35.5387 42.087 36.0287 42.087C36.525 42.087 36.9158 41.896 37.2136 41.5081C37.5051 41.1201 37.654 40.5843 37.654 39.8884C37.654 39.2664 37.5051 38.7614 37.2073 38.3796C36.9096 37.9916 36.5126 37.8007 36.0225 37.8007C35.5387 37.8007 35.1541 37.9916 34.8563 38.3734C34.5523 38.7429 34.4097 39.291 34.4097 39.9992Z" fill="black"/>
<path d="M44.3225 37.973C44.1737 37.9484 44.0124 37.9361 43.8449 37.9361C43.2059 37.9361 42.7717 38.2071 42.5422 38.749V42.7705H41.5621V37.1047H42.5112L42.5298 37.7575C42.8524 37.2525 43.3052 37 43.8883 37C44.0806 37 44.2233 37.0246 44.3225 37.0739V37.973Z" fill="black"/>
<path d="M46.5991 39.8884C46.5991 39.0201 46.8038 38.318 47.2195 37.7884C47.6351 37.2587 48.1748 36.9939 48.8509 36.9939C49.5209 36.9939 50.0482 37.2218 50.439 37.6775V34.7214H51.4129V42.7644H50.5134L50.4638 42.1547C50.073 42.6289 49.5333 42.8691 48.8323 42.8691C48.1686 42.8691 47.6289 42.5981 47.2133 42.0623C46.7976 41.5266 46.5867 40.8245 46.5867 39.9561V39.8884H46.5991ZM47.5793 39.9992C47.5793 40.6397 47.7157 41.1447 47.9825 41.5081C48.2492 41.8714 48.6214 42.05 49.0929 42.05C49.7132 42.05 50.166 41.7729 50.4514 41.2248V38.6198C50.1598 38.084 49.7132 37.8191 49.1053 37.8191C48.6276 37.8191 48.2554 38.0039 47.9887 38.3673C47.7095 38.7368 47.5793 39.2787 47.5793 39.9992Z" fill="black"/>
<path d="M54.651 35.5958C54.651 35.4419 54.7006 35.3064 54.7937 35.1955C54.8929 35.0847 55.0356 35.0354 55.2217 35.0354C55.4078 35.0354 55.5567 35.0908 55.6559 35.1955C55.7552 35.3002 55.8048 35.4357 55.8048 35.5958C55.8048 35.7559 55.7552 35.8853 55.6559 35.99C55.5567 36.0947 55.414 36.1439 55.2217 36.1439C55.0294 36.1439 54.8867 36.0947 54.7937 35.99C54.7006 35.8853 54.651 35.7559 54.651 35.5958ZM55.7118 42.7704H54.7378V37.1046H55.7118V42.7704Z" fill="black"/>
<path d="M59.9114 37.0986L59.9425 37.813C60.3767 37.271 60.9474 36.9939 61.6546 36.9939C62.858 36.9939 63.4721 37.6713 63.4783 39.02V42.7644H62.5044V39.0139C62.4982 38.6074 62.4052 38.3057 62.2191 38.1086C62.033 37.9115 61.7476 37.813 61.3568 37.813C61.0404 37.813 60.7613 37.8992 60.5256 38.0655C60.2836 38.2318 60.0975 38.4535 59.9673 38.7244V42.7644H58.9933V37.0986H59.9114Z" fill="black"/>
<path d="M70.1903 42.7706C70.1344 42.6598 70.091 42.4627 70.0538 42.1733C69.6009 42.6413 69.0612 42.8753 68.4285 42.8753C67.864 42.8753 67.405 42.7152 67.0452 42.4011C66.6854 42.087 66.5055 41.6867 66.5055 41.2002C66.5055 40.609 66.7288 40.1533 67.1817 39.8269C67.6345 39.5005 68.2672 39.3404 69.0861 39.3404H70.0352V38.8969C70.0352 38.5582 69.9359 38.2873 69.7312 38.0902C69.5265 37.887 69.2287 37.7884 68.8317 37.7884C68.4843 37.7884 68.1928 37.8746 67.9571 38.0532C67.7213 38.2257 67.6035 38.4412 67.6035 38.6876H66.6234C66.6234 38.4043 66.7226 38.1333 66.9273 37.8685C67.132 37.6037 67.405 37.3943 67.7524 37.2403C68.0997 37.0864 68.4781 37.0125 68.8938 37.0125C69.5513 37.0125 70.0662 37.1787 70.4384 37.499C70.8106 37.8254 71.0029 38.2749 71.0215 38.8477V41.4589C71.0215 41.9762 71.0897 42.395 71.22 42.7029V42.7891H70.1903V42.7706ZM68.5712 42.0316C68.8752 42.0316 69.1667 41.9516 69.4397 41.7976C69.7126 41.6436 69.9111 41.4342 70.0352 41.1879V40.0239H69.2722C68.0749 40.0239 67.4794 40.3688 67.4794 41.0647C67.4794 41.3665 67.5787 41.6067 67.7834 41.7791C67.9881 41.9454 68.2548 42.0316 68.5712 42.0316Z" fill="black"/>
<path d="M77.0201 37.973C76.8712 37.9484 76.7099 37.9361 76.5424 37.9361C75.9035 37.9361 75.4692 38.2071 75.2397 38.749V42.7705H74.2658V37.1047H75.2149L75.2335 37.7575C75.5561 37.2525 76.0089 37 76.592 37C76.7843 37 76.927 37.0246 77.0263 37.0739V37.973H77.0201Z" fill="black"/>
<path d="M81.2259 35.7314V37.1048H82.2929V37.8561H81.2259V41.3726C81.2259 41.6005 81.2756 41.7729 81.3686 41.8838C81.4617 41.9946 81.623 42.0562 81.8525 42.0562C81.9641 42.0562 82.1192 42.0377 82.3177 41.9946V42.7767C82.0634 42.8445 81.8091 42.8814 81.5671 42.8814C81.1329 42.8814 80.8041 42.7521 80.5808 42.4873C80.3575 42.2225 80.2458 41.853 80.2458 41.3726V37.8561H79.2037V37.1048H80.2458V35.7314H81.2259Z" fill="black"/>
<path d="M89.3026 39.8884C89.3026 39.0201 89.5073 38.318 89.923 37.7884C90.3386 37.2587 90.8783 36.9939 91.5544 36.9939C92.2244 36.9939 92.7517 37.2218 93.1425 37.6775V34.7214H94.1164V42.7644H93.2169L93.1673 42.1547C92.7765 42.6289 92.2368 42.8691 91.5358 42.8691C90.8721 42.8691 90.3324 42.5981 89.9168 42.0623C89.5011 41.5266 89.2902 40.8245 89.2902 39.9561V39.8884H89.3026ZM90.2765 39.9992C90.2765 40.6397 90.413 41.1447 90.6798 41.5081C90.9465 41.8714 91.3187 42.05 91.7901 42.05C92.4105 42.05 92.8633 41.7729 93.1487 41.2248V38.6198C92.8571 38.084 92.4105 37.8191 91.8026 37.8191C91.3249 37.8191 90.9527 38.0039 90.686 38.3673C90.413 38.7368 90.2765 39.2787 90.2765 39.9992Z" fill="black"/>
<path d="M100.872 42.7706C100.816 42.6598 100.773 42.4627 100.735 42.1733C100.282 42.6413 99.7428 42.8753 99.11 42.8753C98.5455 42.8753 98.0865 42.7152 97.7267 42.4011C97.3669 42.087 97.187 41.6867 97.187 41.2002C97.187 40.609 97.4103 40.1533 97.8632 39.8269C98.316 39.5005 98.9487 39.3404 99.7676 39.3404H100.717V38.8969C100.717 38.5582 100.617 38.2873 100.413 38.0902C100.208 37.887 99.9103 37.7884 99.5132 37.7884C99.1659 37.7884 98.8743 37.8746 98.6386 38.0532C98.4029 38.2257 98.285 38.4412 98.285 38.6876H97.3049C97.3049 38.4043 97.4041 38.1333 97.6088 37.8685C97.8135 37.6037 98.0865 37.3943 98.4339 37.2403C98.7813 37.0864 99.1597 37.0125 99.5753 37.0125C100.233 37.0125 100.748 37.1787 101.12 37.499C101.492 37.8254 101.684 38.2749 101.703 38.8477V41.4589C101.703 41.9762 101.771 42.395 101.902 42.7029V42.7891H100.872V42.7706ZM99.2527 42.0316C99.5567 42.0316 99.8482 41.9516 100.121 41.7976C100.394 41.6436 100.593 41.4342 100.717 41.1879V40.0239H99.9537C98.7564 40.0239 98.1609 40.3688 98.1609 41.0647C98.1609 41.3665 98.2602 41.6067 98.4649 41.7791C98.6758 41.9454 98.9363 42.0316 99.2527 42.0316Z" fill="black"/>
<path d="M106.269 35.7314V37.1048H107.336V37.8561H106.269V41.3726C106.269 41.6005 106.318 41.7729 106.411 41.8838C106.504 41.9946 106.666 42.0562 106.895 42.0562C107.007 42.0562 107.162 42.0377 107.36 41.9946V42.7767C107.106 42.8445 106.852 42.8814 106.61 42.8814C106.176 42.8814 105.847 42.7521 105.623 42.4873C105.4 42.2225 105.288 41.853 105.288 41.3726V37.8561H104.246V37.1048H105.288V35.7314H106.269Z" fill="black"/>
<path d="M113.719 42.7706C113.663 42.6598 113.62 42.4627 113.582 42.1733C113.13 42.6413 112.59 42.8753 111.957 42.8753C111.393 42.8753 110.934 42.7152 110.574 42.4011C110.214 42.087 110.034 41.6867 110.034 41.2002C110.034 40.609 110.257 40.1533 110.71 39.8269C111.163 39.5005 111.796 39.3404 112.615 39.3404H113.564V38.8969C113.564 38.5582 113.464 38.2873 113.26 38.0902C113.055 37.887 112.757 37.7884 112.36 37.7884C112.013 37.7884 111.721 37.8746 111.486 38.0532C111.25 38.2257 111.132 38.4412 111.132 38.6876H110.152C110.152 38.4043 110.251 38.1333 110.456 37.8685C110.661 37.6037 110.934 37.3943 111.281 37.2403C111.628 37.0864 112.007 37.0125 112.422 37.0125C113.08 37.0125 113.595 37.1787 113.967 37.499C114.339 37.8254 114.531 38.2749 114.55 38.8477V41.4589C114.55 41.9762 114.618 42.395 114.749 42.7029V42.7891H113.719V42.7706ZM112.1 42.0316C112.404 42.0316 112.695 41.9516 112.968 41.7976C113.241 41.6436 113.44 41.4342 113.564 41.1879V40.0239H112.801C111.603 40.0239 111.008 40.3688 111.008 41.0647C111.008 41.3665 111.107 41.6067 111.312 41.7791C111.517 41.9454 111.777 42.0316 112.1 42.0316Z" fill="black"/>
<path d="M122.186 35.5958C122.186 35.4419 122.236 35.3064 122.329 35.1955C122.428 35.0847 122.571 35.0354 122.757 35.0354C122.949 35.0354 123.092 35.0908 123.191 35.1955C123.29 35.3002 123.34 35.4357 123.34 35.5958C123.34 35.7559 123.29 35.8853 123.191 35.99C123.092 36.0947 122.949 36.1439 122.757 36.1439C122.565 36.1439 122.422 36.0947 122.329 35.99C122.236 35.8853 122.186 35.7559 122.186 35.5958ZM123.241 42.7704H122.267V37.1046H123.241V42.7704Z" fill="black"/>
<path d="M127.44 37.0986L127.472 37.813C127.906 37.271 128.476 36.9939 129.184 36.9939C130.387 36.9939 131.001 37.6713 131.007 39.02V42.7644H130.033V39.0139C130.027 38.6074 129.934 38.3057 129.748 38.1086C129.562 37.9115 129.277 37.813 128.886 37.813C128.569 37.813 128.29 37.8992 128.055 38.0655C127.813 38.2318 127.627 38.4535 127.496 38.7244V42.7644H126.522V37.0986H127.44Z" fill="black"/>
<path d="M137.521 41.2617C137.521 41.003 137.422 40.7936 137.223 40.652C137.025 40.5103 136.677 40.381 136.187 40.2763C135.691 40.1716 135.3 40.0484 135.008 39.9006C134.717 39.7528 134.506 39.5804 134.363 39.3772C134.227 39.1739 134.159 38.9338 134.159 38.6566C134.159 38.1947 134.357 37.8006 134.754 37.4804C135.151 37.1601 135.654 37 136.274 37C136.919 37 137.446 37.1663 137.85 37.4988C138.253 37.8314 138.451 38.2563 138.451 38.7736H137.471C137.471 38.5088 137.36 38.281 137.13 38.09C136.9 37.8991 136.615 37.8006 136.274 37.8006C135.92 37.8006 135.641 37.8807 135.443 38.0285C135.244 38.1824 135.145 38.3857 135.145 38.632C135.145 38.866 135.238 39.0446 135.424 39.1616C135.61 39.2786 135.945 39.3956 136.435 39.5003C136.925 39.605 137.316 39.7405 137.62 39.8883C137.924 40.0361 138.147 40.2209 138.29 40.4303C138.439 40.6397 138.507 40.8983 138.507 41.2001C138.507 41.7051 138.302 42.1115 137.893 42.4195C137.484 42.7274 136.956 42.8752 136.305 42.8752C135.846 42.8752 135.443 42.7951 135.089 42.635C134.736 42.4749 134.463 42.247 134.264 41.9637C134.066 41.6804 133.966 41.3664 133.966 41.0276H134.94C134.959 41.354 135.089 41.6127 135.331 41.7975C135.573 41.9884 135.896 42.0807 136.299 42.0807C136.671 42.0807 136.962 42.0068 137.186 41.859C137.409 41.7112 137.521 41.5142 137.521 41.2617Z" fill="black"/>
<path d="M141.491 35.5958C141.491 35.4419 141.541 35.3064 141.634 35.1955C141.733 35.0847 141.876 35.0354 142.062 35.0354C142.254 35.0354 142.397 35.0908 142.496 35.1955C142.595 35.3064 142.645 35.4357 142.645 35.5958C142.645 35.7559 142.595 35.8853 142.496 35.99C142.397 36.0947 142.254 36.1439 142.062 36.1439C141.869 36.1439 141.727 36.0947 141.634 35.99C141.541 35.8853 141.491 35.7559 141.491 35.5958ZM142.545 42.7704H141.572V37.1046H142.545V42.7704Z" fill="black"/>
<path d="M145.598 39.8883C145.598 39.0077 145.802 38.2994 146.218 37.7821C146.633 37.2648 147.173 37 147.856 37C148.55 37 149.096 37.2463 149.487 37.7329L149.537 37.1047H150.43V42.635C150.43 43.3679 150.213 43.9468 149.772 44.3655C149.332 44.7843 148.749 44.9999 148.011 44.9999C147.601 44.9999 147.198 44.9136 146.801 44.735C146.41 44.5626 146.106 44.3224 145.901 44.0145L146.41 43.4356C146.826 43.9468 147.341 44.2054 147.942 44.2054C148.42 44.2054 148.786 44.0699 149.053 43.8051C149.32 43.5403 149.45 43.1646 149.45 42.6843V42.1978C149.059 42.6473 148.525 42.869 147.849 42.869C147.179 42.869 146.64 42.6042 146.224 42.0684C145.802 41.5388 145.598 40.8121 145.598 39.8883ZM146.578 39.9992C146.578 40.6397 146.708 41.1385 146.975 41.5018C147.235 41.8652 147.607 42.05 148.085 42.05C148.699 42.05 149.152 41.7728 149.444 41.2186V38.632C149.146 38.09 148.693 37.8191 148.097 37.8191C147.62 37.8191 147.254 38.0038 146.987 38.3672C146.708 38.7367 146.578 39.2786 146.578 39.9992Z" fill="black"/>
<path d="M154.58 37.7884C155.014 37.2587 155.572 37.0001 156.267 37.0001C157.471 37.0001 158.085 37.6775 158.091 39.0262V42.7706H157.117V39.0201C157.111 38.6136 157.018 38.3118 156.832 38.1148C156.646 37.9177 156.36 37.8191 155.969 37.8191C155.653 37.8191 155.374 37.9054 155.138 38.0716C154.896 38.2379 154.71 38.4596 154.58 38.7306V42.7706H153.606V34.7214H154.58V37.7884Z" fill="black"/>
<path d="M162.601 35.7314V37.1048H163.668V37.8561H162.601V41.3726C162.601 41.6005 162.65 41.7729 162.743 41.8838C162.836 41.9946 162.998 42.0562 163.227 42.0562C163.339 42.0562 163.494 42.0377 163.692 41.9946V42.7767C163.438 42.8445 163.184 42.8814 162.942 42.8814C162.508 42.8814 162.179 42.7521 161.956 42.4873C161.732 42.2225 161.621 41.853 161.621 41.3726V37.8561H160.578V37.1048H161.621V35.7314H162.601Z" fill="black"/>
<path d="M169.846 41.2617C169.846 41.003 169.747 40.7936 169.548 40.652C169.35 40.5103 169.003 40.381 168.512 40.2763C168.016 40.1716 167.625 40.0484 167.334 39.9006C167.042 39.7528 166.831 39.5804 166.689 39.3772C166.552 39.1739 166.484 38.9338 166.484 38.6566C166.484 38.1947 166.682 37.8006 167.079 37.4804C167.477 37.1601 167.979 37 168.599 37C169.244 37 169.772 37.1663 170.175 37.4988C170.578 37.8314 170.777 38.2563 170.777 38.7736H169.797C169.797 38.5088 169.685 38.281 169.455 38.09C169.226 37.8991 168.94 37.8006 168.599 37.8006C168.246 37.8006 167.967 37.8807 167.768 38.0285C167.57 38.1824 167.47 38.3857 167.47 38.632C167.47 38.866 167.563 39.0446 167.749 39.1616C167.936 39.2786 168.271 39.3956 168.761 39.5003C169.251 39.605 169.641 39.7405 169.945 39.8883C170.249 40.0361 170.473 40.2209 170.615 40.4303C170.764 40.6397 170.833 40.8983 170.833 41.2001C170.833 41.7051 170.628 42.1115 170.218 42.4195C169.809 42.7274 169.282 42.8752 168.63 42.8752C168.171 42.8752 167.768 42.7951 167.414 42.635C167.061 42.4749 166.788 42.247 166.589 41.9637C166.391 41.6804 166.292 41.3664 166.292 41.0276H167.266C167.284 41.354 167.414 41.6127 167.656 41.7975C167.898 41.9884 168.221 42.0807 168.624 42.0807C168.996 42.0807 169.288 42.0068 169.511 41.859C169.735 41.7112 169.846 41.5142 169.846 41.2617Z" fill="black"/>
</g>
<defs>
<clipPath id="clip0_381_229">
<rect width="171" height="45" fill="white"/>
</clipPath>
</defs>
</svg>
