<svg width="16" height="16" viewBox="0 0 16 16" fill="none" xmlns="http://www.w3.org/2000/svg">
<path d="M11.7333 13.6833L14.05 11.3833L13.35 10.6833L11.7333 12.2667L11.0833 11.6167L10.3833 12.3333L11.7333 13.6833ZM4 5.66667H12V4.66667H4V5.66667ZM12.2083 15.3167C11.3472 15.3167 10.6111 15.0083 10 14.3917C9.38889 13.775 9.08333 13.0444 9.08333 12.2C9.08333 11.3285 9.38883 10.5856 9.99983 9.97138C10.6108 9.35713 11.3498 9.05 12.2167 9.05C13.0722 9.05 13.8083 9.35713 14.425 9.97138C15.0417 10.5856 15.35 11.3285 15.35 12.2C15.35 13.0444 15.0417 13.775 14.425 14.3917C13.8083 15.0083 13.0694 15.3167 12.2083 15.3167ZM2 14.65V3C2 2.725 2.09792 2.48958 2.29375 2.29375C2.48958 2.09792 2.725 2 3 2H13C13.275 2 13.5104 2.09792 13.7062 2.29375C13.9021 2.48958 14 2.725 14 3V8.45C13.8426 8.37381 13.681 8.31032 13.5152 8.25952C13.3495 8.20873 13.1778 8.16667 13 8.13333V3H3V12.9833H8.16667C8.19872 13.1852 8.2484 13.3774 8.3157 13.5598C8.38301 13.7421 8.46111 13.9222 8.55 14.1L8 14.65L7 13.65L6 14.65L5 13.65L4 14.65L3 13.65L2 14.65ZM4 11.3333H8.20453C8.24596 11.1556 8.29167 10.9833 8.34167 10.8167C8.39167 10.65 8.46111 10.4889 8.55 10.3333H4V11.3333ZM4 8.5H10.4C10.6444 8.37778 10.9 8.28056 11.1667 8.20833C11.4333 8.13611 11.7111 8.08889 12 8.06667V7.5H4V8.5Z" fill="white"/>
</svg>
